# 3ds Max Wavefront OBJ Exporter v0.97b - (c)2007 guruware
# File Created: 11.03.2017 20:47:16

#
# object Column_02_DoorWay_Plane
#

v  200.0000 400.0000 0.0000
v  200.0000 200.0000 0.0000
v  0.0000 349.2464 0.0000
v  113.3282 313.3282 0.0000
v  -200.0000 400.0000 0.0000
v  0.0000 400.0000 0.0000
v  -113.3282 313.3282 0.0000
v  -200.0000 200.0000 0.0000
# 8 vertices

vn 0.0000 -0.0000 1.0000
vn 0.0000 -0.0000 1.0000
vn 0.0000 -0.0000 1.0000
vn 0.0000 -0.0000 1.0000
vn 0.0000 -0.0000 1.0000
vn 0.0000 -0.0000 1.0000
vn 0.0000 -0.0000 1.0000
vn 0.0000 -0.0000 1.0000
vn 0.0000 -0.0000 1.0000
vn 0.0000 -0.0000 1.0000
vn 0.0000 -0.0000 1.0000
vn 0.0000 -0.0000 1.0000
vn 0.0000 -0.0000 1.0000
vn 0.0000 -0.0000 1.0000
# 14 vertex normals

vt 1.0000 1.0000 0.5000
vt 1.0000 0.5000 0.5000
vt 0.5000 0.8731 0.5000
vt 0.7833 0.7833 0.5000
vt 0.0000 1.0000 0.5000
vt 0.5000 1.0000 0.5000
vt 0.2167 0.7833 0.5000
vt 0.0000 0.5000 0.5000
# 8 texture coords

g Column_02_DoorWay_Plane
s 1
f 3/3/1 4/4/2 1/1/3 6/6/4 
f 2/2/5 1/1/6 4/4/7 
f 3/3/8 6/6/9 5/5/10 7/7/11 
f 8/8/12 7/7/13 5/5/14 
# 2 polygons - 2 triangles

