# 3ds Max Wavefront OBJ Exporter v0.97b - (c)2007 guruware
# File Created: 16.03.2017 00:08:34

#
# object Handle_01_Button_01
#

v  -13.0000 -15.0000 -0.0000
v  15.0000 -13.0000 -0.0000
v  -15.0000 13.0000 -0.0000
v  13.0000 15.0000 -0.0000
v  -10.0000 -12.0000 3.0000
v  12.0000 -10.0000 3.0000
v  10.0000 12.0000 3.0000
v  -12.0000 10.0000 3.0000
v  -15.0000 -13.0000 -0.0000
v  13.0000 -15.0000 -0.0000
v  -13.0000 15.0000 -0.0000
v  15.0000 13.0000 -0.0000
v  -12.0000 -10.0000 3.0000
v  10.0000 -12.0000 3.0000
v  12.0000 10.0000 3.0000
v  -10.0000 12.0000 3.0000
v  -7.1047 -8.4712 3.0000
v  7.1047 -8.4712 3.0000
v  8.4712 -7.1047 3.0000
v  8.4712 7.1047 3.0000
v  7.1047 8.4712 3.0000
v  -7.1047 8.4712 3.0000
v  -8.4712 7.1047 3.0000
v  -8.4712 -7.1047 3.0000
v  -6.0072 -7.1195 6.7751
v  6.0072 -7.1195 6.7751
v  7.1195 -6.0072 6.7751
v  7.1195 6.0072 6.7751
v  6.0072 7.1195 6.7751
v  -6.0072 7.1195 6.7751
v  -7.1195 6.0072 6.7751
v  -7.1195 -6.0072 6.7751
v  -4.8029 -5.6513 6.7751
v  4.8029 -5.6513 6.7751
v  5.6513 -4.8029 6.7751
v  5.6513 4.8029 6.7751
v  4.8029 5.6513 6.7751
v  -4.8029 5.6513 6.7751
v  -5.6513 4.8029 6.7751
v  -5.6513 -4.8029 6.7751
v  -4.8029 -5.6513 1.7751
v  4.8029 -5.6513 1.7751
v  5.6513 -4.8029 1.7751
v  5.6513 4.8029 1.7751
v  4.8029 5.6513 1.7751
v  -4.8029 5.6513 1.7751
v  -5.6513 4.8029 1.7751
v  -5.6513 -4.8029 1.7751
# 48 vertices

vn 0.0000 -0.7071 0.7071
vn 0.0000 -0.7071 0.7071
vn 0.0000 -0.7071 0.7071
vn 0.0000 -0.7071 0.7071
vn 0.7071 0.0000 0.7071
vn 0.7071 0.0000 0.7071
vn 0.7071 0.0000 0.7071
vn 0.7071 0.0000 0.7071
vn 0.0000 0.7071 0.7071
vn 0.0000 0.7071 0.7071
vn 0.0000 0.7071 0.7071
vn 0.0000 0.7071 0.7071
vn -0.7071 0.0000 0.7071
vn -0.7071 0.0000 0.7071
vn -0.7071 0.0000 0.7071
vn -0.7071 0.0000 0.7071
vn -0.4082 -0.4082 0.8165
vn -0.4082 -0.4082 0.8165
vn -0.4082 -0.4082 0.8165
vn -0.4082 -0.4082 0.8165
vn 0.4082 -0.4082 0.8165
vn 0.4082 -0.4082 0.8165
vn 0.4082 -0.4082 0.8165
vn 0.4082 -0.4082 0.8165
vn 0.4082 0.4082 0.8165
vn 0.4082 0.4082 0.8165
vn 0.4082 0.4082 0.8165
vn 0.4082 0.4082 0.8165
vn -0.4082 0.4082 0.8165
vn -0.4082 0.4082 0.8165
vn -0.4082 0.4082 0.8165
vn -0.4082 0.4082 0.8165
vn 0.0000 0.0000 1.0000
vn 0.0000 0.0000 1.0000
vn 0.0000 0.0000 1.0000
vn 0.0000 0.0000 1.0000
vn 0.0000 0.0000 1.0000
vn 0.0000 0.0000 1.0000
vn 0.0000 0.0000 1.0000
vn 0.0000 0.0000 1.0000
vn 0.0000 0.0000 1.0000
vn 0.0000 0.0000 1.0000
vn 0.0000 0.0000 1.0000
vn 0.0000 0.0000 1.0000
vn 0.0000 0.0000 1.0000
vn 0.0000 0.0000 1.0000
vn 0.0000 0.0000 1.0000
vn 0.0000 0.0000 1.0000
vn 0.0000 0.0000 1.0000
vn 0.0000 0.0000 1.0000
vn 0.0000 0.0000 1.0000
vn 0.0000 0.0000 1.0000
vn 0.0000 0.0000 1.0000
vn 0.0000 0.0000 1.0000
vn 0.0000 0.0000 1.0000
vn 0.0000 0.0000 1.0000
vn 0.0000 0.0000 1.0000
vn 0.0000 0.0000 1.0000
vn 0.0000 0.0000 1.0000
vn 0.0000 0.0000 1.0000
vn 0.0000 0.0000 1.0000
vn 0.0000 0.0000 1.0000
vn 0.0000 0.0000 1.0000
vn 0.0000 0.0000 1.0000
vn 0.0000 -0.9415 0.3371
vn 0.0000 -0.9415 0.3371
vn 0.0000 -0.9415 0.3371
vn 0.0000 -0.9415 0.3371
vn 0.6427 -0.6427 0.4170
vn 0.6427 -0.6427 0.4170
vn 0.6427 -0.6427 0.4170
vn 0.6427 -0.6427 0.4170
vn 0.9415 0.0000 0.3371
vn 0.9415 0.0000 0.3371
vn 0.9415 0.0000 0.3371
vn 0.9415 0.0000 0.3371
vn 0.6427 0.6427 0.4170
vn 0.6427 0.6427 0.4170
vn 0.6427 0.6427 0.4170
vn 0.6427 0.6427 0.4170
vn 0.0000 0.9415 0.3371
vn 0.0000 0.9415 0.3371
vn 0.0000 0.9415 0.3371
vn 0.0000 0.9415 0.3371
vn -0.6427 0.6427 0.4170
vn -0.6427 0.6427 0.4170
vn -0.6427 0.6427 0.4170
vn -0.6427 0.6427 0.4170
vn -0.9415 0.0000 0.3371
vn -0.9415 0.0000 0.3371
vn -0.9415 0.0000 0.3371
vn -0.9415 0.0000 0.3371
vn -0.6427 -0.6427 0.4170
vn -0.6427 -0.6427 0.4170
vn -0.6427 -0.6427 0.4170
vn -0.6427 -0.6427 0.4170
vn 0.0000 0.0000 1.0000
vn 0.0000 0.0000 1.0000
vn 0.0000 0.0000 1.0000
vn 0.0000 0.0000 1.0000
vn 0.0000 0.0000 1.0000
vn 0.0000 0.0000 1.0000
vn 0.0000 0.0000 1.0000
vn 0.0000 0.0000 1.0000
vn 0.0000 0.0000 1.0000
vn 0.0000 0.0000 1.0000
vn 0.0000 0.0000 1.0000
vn 0.0000 0.0000 1.0000
vn 0.0000 0.0000 1.0000
vn 0.0000 0.0000 1.0000
vn 0.0000 0.0000 1.0000
vn 0.0000 0.0000 1.0000
vn 0.0000 0.0000 1.0000
vn 0.0000 0.0000 1.0000
vn 0.0000 0.0000 1.0000
vn 0.0000 0.0000 1.0000
vn 0.0000 0.0000 1.0000
vn 0.0000 0.0000 1.0000
vn 0.0000 0.0000 1.0000
vn 0.0000 0.0000 1.0000
vn 0.0000 0.0000 1.0000
vn 0.0000 0.0000 1.0000
vn 0.0000 0.0000 1.0000
vn 0.0000 0.0000 1.0000
vn 0.0000 0.0000 1.0000
vn 0.0000 0.0000 1.0000
vn 0.0000 0.0000 1.0000
vn 0.0000 0.0000 1.0000
vn 0.0000 1.0000 -0.0000
vn 0.0000 1.0000 -0.0000
vn 0.0000 1.0000 -0.0000
vn 0.0000 1.0000 -0.0000
vn -0.7071 0.7071 -0.0000
vn -0.7071 0.7071 -0.0000
vn -0.7071 0.7071 -0.0000
vn -0.7071 0.7071 -0.0000
vn -1.0000 0.0000 -0.0000
vn -1.0000 0.0000 -0.0000
vn -1.0000 0.0000 -0.0000
vn -1.0000 0.0000 -0.0000
vn -0.7071 -0.7071 -0.0000
vn -0.7071 -0.7071 -0.0000
vn -0.7071 -0.7071 -0.0000
vn -0.7071 -0.7071 -0.0000
vn 0.0000 -1.0000 -0.0000
vn 0.0000 -1.0000 -0.0000
vn 0.0000 -1.0000 -0.0000
vn 0.0000 -1.0000 -0.0000
vn 0.7071 -0.7071 -0.0000
vn 0.7071 -0.7071 -0.0000
vn 0.7071 -0.7071 -0.0000
vn 0.7071 -0.7071 -0.0000
vn 1.0000 0.0000 -0.0000
vn 1.0000 0.0000 -0.0000
vn 1.0000 0.0000 -0.0000
vn 1.0000 0.0000 -0.0000
vn 0.7071 0.7071 -0.0000
vn 0.7071 0.7071 -0.0000
vn 0.7071 0.7071 -0.0000
vn 0.7071 0.7071 -0.0000
# 160 vertex normals

vt 0.6384 0.3313 0.0000
vt 0.6384 0.0723 0.0000
vt 0.6807 0.1022 0.0000
vt 0.6807 0.3014 0.0000
vt 0.6707 0.0400 0.0000
vt 0.9297 0.0400 0.0000
vt 0.8998 0.0823 0.0000
vt 0.7006 0.0823 0.0000
vt 0.9620 0.0723 0.0000
vt 0.9620 0.3313 0.0000
vt 0.9197 0.3014 0.0000
vt 0.9197 0.1022 0.0000
vt 0.9297 0.3636 0.0000
vt 0.6707 0.3636 0.0000
vt 0.7006 0.3213 0.0000
vt 0.8998 0.3213 0.0000
vt 0.6640 0.3579 0.0000
vt 0.6441 0.3380 0.0000
vt 0.6441 0.0656 0.0000
vt 0.6640 0.0457 0.0000
vt 0.9364 0.0457 0.0000
vt 0.9563 0.0656 0.0000
vt 0.9563 0.3380 0.0000
vt 0.9364 0.3579 0.0000
vt 0.7158 0.1310 0.0000
vt 0.7158 0.2726 0.0000
vt 0.7294 0.1174 0.0000
vt 0.8710 0.1174 0.0000
vt 0.8846 0.1310 0.0000
vt 0.8846 0.2726 0.0000
vt 0.8710 0.2862 0.0000
vt 0.7294 0.2862 0.0000
vt 0.5380 0.4802 0.0000
vt 0.6711 0.4320 0.0000
vt 0.6744 0.4733 0.0000
vt 0.5619 0.5140 0.0000
vt 0.6903 0.4313 0.0000
vt 0.6901 0.4727 0.0000
vt 0.8266 0.4695 0.0000
vt 0.8053 0.5050 0.0000
vt 0.8427 0.4802 0.0000
vt 0.8184 0.5137 0.0000
vt 0.3260 0.1342 0.0000
vt 0.4591 0.0860 0.0000
vt 0.4624 0.1273 0.0000
vt 0.3499 0.1680 0.0000
vt 0.4783 0.0853 0.0000
vt 0.4781 0.1267 0.0000
vt 0.6146 0.1235 0.0000
vt 0.5933 0.1590 0.0000
vt 0.6307 0.1342 0.0000
vt 0.6064 0.1677 0.0000
vt 0.5540 0.1671 0.0000
vt 0.5540 0.2868 0.0000
vt 0.5394 0.2748 0.0000
vt 0.5394 0.1791 0.0000
vt 0.5429 0.2978 0.0000
vt 0.5309 0.2832 0.0000
vt 0.4232 0.2978 0.0000
vt 0.4352 0.2832 0.0000
vt 0.4122 0.2868 0.0000
vt 0.4268 0.2748 0.0000
vt 0.4122 0.1671 0.0000
vt 0.4268 0.1791 0.0000
vt 0.4232 0.1560 0.0000
vt 0.4352 0.1706 0.0000
vt 0.5429 0.1560 0.0000
vt 0.5309 0.1706 0.0000
vt 0.7480 0.4240 0.0000
vt 0.6523 0.4240 0.0000
vt 0.6523 0.3742 0.0000
vt 0.7480 0.3742 0.0000
vt 0.2300 0.6000 0.0000
vt 0.2180 0.6000 0.0000
vt 0.2180 0.5502 0.0000
vt 0.2300 0.5502 0.0000
vt 0.1224 0.6000 0.0000
vt 0.1224 0.5502 0.0000
vt 0.1104 0.6000 0.0000
vt 0.1104 0.5502 0.0000
vt 0.6660 0.5998 0.0000
vt 0.5703 0.5998 0.0000
vt 0.5703 0.5500 0.0000
vt 0.6660 0.5500 0.0000
vt 0.4882 0.8776 0.0000
vt 0.4882 0.8656 0.0000
vt 0.5380 0.8656 0.0000
vt 0.5380 0.8776 0.0000
vt 0.4882 0.7700 0.0000
vt 0.5380 0.7700 0.0000
vt 0.4882 0.7580 0.0000
vt 0.5380 0.7580 0.0000
# 92 texture coords

g Handle_01_Button_01
s off
f 5/4/1 1/1/2 10/2/3 14/3/4 
f 6/8/5 2/5/6 12/6/7 15/7/8 
f 7/12/9 4/9/10 11/10/11 16/11/12 
f 8/16/13 3/13/14 9/14/15 13/15/16 
f 13/15/17 9/17/18 1/18/19 5/4/20 
f 14/3/21 10/19/22 2/20/23 6/8/24 
f 15/7/25 12/21/26 4/22/27 7/12/28 
f 16/11/29 11/23/30 3/24/31 8/16/32 
f 17/26/33 5/4/34 14/3/35 18/25/36 
f 18/25/37 14/3/38 6/8/39 19/27/40 
f 19/27/41 6/8/42 15/7/43 20/28/44 
f 20/28/45 15/7/46 7/12/47 21/29/48 
f 21/29/49 7/12/50 16/11/51 22/30/52 
f 22/30/53 16/11/54 8/16/55 23/31/56 
f 23/31/57 8/16/58 13/15/59 24/32/60 
f 24/32/61 13/15/62 5/4/63 17/26/64 
f 25/36/65 17/33/66 18/34/67 26/35/68 
f 26/35/69 18/34/70 19/37/71 27/38/72 
f 27/38/73 19/37/74 20/39/75 28/40/76 
f 28/40/77 20/39/78 21/41/79 29/42/80 
f 29/46/81 21/43/82 22/44/83 30/45/84 
f 30/45/85 22/44/86 23/47/87 31/48/88 
f 31/48/89 23/47/90 24/49/91 32/50/92 
f 32/50/93 24/49/94 17/51/95 25/52/96 
f 33/56/97 25/53/98 26/54/99 34/55/100 
f 34/55/101 26/54/102 27/57/103 35/58/104 
f 35/58/105 27/57/106 28/59/107 36/60/108 
f 36/60/109 28/59/110 29/61/111 37/62/112 
f 37/62/113 29/61/114 30/63/115 38/64/116 
f 38/64/117 30/63/118 31/65/119 39/66/120 
f 39/66/121 31/65/122 32/67/123 40/68/124 
f 40/68/125 32/67/126 25/53/127 33/56/128 
f 41/72/129 33/69/130 34/70/131 42/71/132 
f 42/76/133 34/73/134 35/74/135 43/75/136 
f 43/75/137 35/74/138 36/77/139 44/78/140 
f 44/78/141 36/77/142 37/79/143 45/80/144 
f 45/84/145 37/81/146 38/82/147 46/83/148 
f 46/88/149 38/85/150 39/86/151 47/87/152 
f 47/87/153 39/86/154 40/89/155 48/90/156 
f 48/90/157 40/89/158 33/91/159 41/92/160 
# 40 polygons

