# 3ds Max Wavefront OBJ Exporter v0.97b - (c)2007 guruware
# File Created: 13.03.2017 00:16:26

#
# object Light_01_01
#

v  1.1204 -9.6484 -0.0000
v  0.5602 -9.6484 -0.9703
v  -0.5602 -9.6484 -0.9703
v  -1.1204 -9.6484 -0.0000
v  -0.5602 -9.6484 0.9703
v  0.5602 -9.6484 0.9703
v  1.4785 50.3516 -0.0000
v  0.7393 50.3516 -1.2804
v  -0.7393 50.3516 -1.2804
v  -1.4785 50.3516 -0.0000
v  -0.7393 50.3516 1.2804
v  0.7393 50.3516 1.2804
v  0.7393 36.8239 -1.2804
v  1.4785 36.8239 -0.0000
v  -0.7393 36.8239 -1.2804
v  -1.4785 36.8239 -0.0000
v  -0.7393 36.8239 1.2804
v  0.7393 36.8239 1.2804
v  1.1089 49.3516 -1.9207
v  2.2178 49.3516 -0.0000
v  1.1089 49.3516 1.9207
v  -1.1089 49.3516 1.9207
v  -2.2178 49.3516 -0.0000
v  -1.1089 49.3516 -1.9207
v  2.2178 37.8239 -0.0000
v  1.1089 37.8239 -1.9207
v  -1.1089 37.8239 -1.9207
v  -2.2178 37.8239 -0.0000
v  -1.1089 37.8239 1.9207
v  1.1089 37.8239 1.9207
# 30 vertices

vn 1.0000 -0.0077 -0.0000
vn 1.0000 -0.0077 -0.0000
vn 0.5000 -0.0077 -0.8660
vn 0.5000 -0.0077 -0.8660
vn 0.5000 -0.0077 -0.8660
vn 0.5000 -0.0077 -0.8660
vn -0.5000 -0.0077 -0.8660
vn -0.5000 -0.0077 -0.8660
vn -0.5000 -0.0077 -0.8660
vn -0.5000 -0.0077 -0.8660
vn -1.0000 -0.0077 0.0000
vn -1.0000 -0.0077 0.0000
vn -1.0000 -0.0077 0.0000
vn -1.0000 -0.0077 0.0000
vn -0.5000 -0.0077 0.8660
vn -0.5000 -0.0077 0.8660
vn -0.5000 -0.0077 0.8660
vn -0.5000 -0.0077 0.8660
vn 0.5000 -0.0077 0.8660
vn 0.5000 -0.0077 0.8660
vn 0.5000 -0.0077 0.8660
vn 0.5000 -0.0077 0.8660
vn 1.0000 -0.0077 -0.0000
vn 1.0000 -0.0077 -0.0000
vn 0.0000 -1.0000 -0.0000
vn 0.0000 -1.0000 -0.0000
vn 0.0000 -1.0000 -0.0000
vn 0.0000 -1.0000 -0.0000
vn 0.0000 -1.0000 -0.0000
vn 0.0000 -1.0000 -0.0000
vn 0.0000 -1.0000 -0.0000
vn 0.0000 -1.0000 -0.0000
vn 0.0000 -1.0000 -0.0000
vn 0.0000 -1.0000 -0.0000
vn 0.2766 0.8331 -0.4790
vn -0.2766 0.8331 -0.4790
vn -0.5532 0.8331 -0.0000
vn 0.2766 0.8331 0.4790
vn -0.5532 0.8331 -0.0000
vn -0.2766 0.8331 0.4790
vn 0.2766 0.8331 0.4790
vn 0.5532 0.8331 0.0000
vn 0.2766 0.8331 -0.4790
vn 0.2766 0.8331 0.4790
vn 0.9580 -0.2868 -0.0000
vn 0.4790 -0.2868 -0.8297
vn 0.4790 0.2868 -0.8297
vn 0.9580 0.2868 0.0000
vn 0.4790 -0.2868 -0.8297
vn -0.4790 -0.2868 -0.8297
vn -0.4790 0.2868 -0.8297
vn 0.4790 0.2868 -0.8297
vn -0.4790 -0.2868 -0.8297
vn -0.9580 -0.2868 0.0000
vn -0.9580 0.2868 -0.0000
vn -0.4790 0.2868 -0.8297
vn -0.9580 -0.2868 0.0000
vn -0.4790 -0.2868 0.8297
vn -0.4790 0.2868 0.8297
vn -0.9580 0.2868 -0.0000
vn -0.4790 -0.2868 0.8297
vn 0.4790 -0.2868 0.8297
vn 0.4790 0.2868 0.8297
vn -0.4790 0.2868 0.8297
vn 0.4790 -0.2868 0.8297
vn 0.9580 -0.2868 -0.0000
vn 0.9580 0.2868 0.0000
vn 0.4790 0.2868 0.8297
vn 0.9580 0.2868 0.0000
vn 0.4790 0.2868 -0.8297
vn 0.2766 0.8331 -0.4790
vn 0.5532 0.8331 0.0000
vn 0.4790 0.2868 0.8297
vn 0.9580 0.2868 0.0000
vn 0.5532 0.8331 0.0000
vn 0.2766 0.8331 0.4790
vn -0.4790 0.2868 0.8297
vn 0.4790 0.2868 0.8297
vn 0.2766 0.8331 0.4790
vn -0.2766 0.8331 0.4790
vn -0.9580 0.2868 -0.0000
vn -0.4790 0.2868 0.8297
vn -0.2766 0.8331 0.4790
vn -0.5532 0.8331 -0.0000
vn -0.4790 0.2868 -0.8297
vn -0.9580 0.2868 -0.0000
vn -0.5532 0.8331 -0.0000
vn -0.2766 0.8331 -0.4790
vn 0.4790 0.2868 -0.8297
vn -0.4790 0.2868 -0.8297
vn -0.2766 0.8331 -0.4790
vn 0.2766 0.8331 -0.4790
vn 0.4790 -0.2868 -0.8297
vn 0.9580 -0.2868 -0.0000
vn 0.8041 -0.5945 -0.0000
vn 0.4021 -0.5945 -0.6964
vn -0.4790 -0.2868 -0.8297
vn 0.4790 -0.2868 -0.8297
vn 0.4021 -0.5945 -0.6964
vn -0.4021 -0.5945 -0.6964
vn -0.9580 -0.2868 0.0000
vn -0.4790 -0.2868 -0.8297
vn -0.4021 -0.5945 -0.6964
vn -0.8041 -0.5945 0.0000
vn -0.4790 -0.2868 0.8297
vn -0.9580 -0.2868 0.0000
vn -0.8041 -0.5945 0.0000
vn -0.4021 -0.5945 0.6964
vn 0.4790 -0.2868 0.8297
vn -0.4790 -0.2868 0.8297
vn -0.4021 -0.5945 0.6964
vn 0.4021 -0.5945 0.6964
vn 0.9580 -0.2868 -0.0000
vn 0.4790 -0.2868 0.8297
vn 0.4021 -0.5945 0.6964
vn 0.8041 -0.5945 -0.0000
# 116 vertex normals

vt 0.7639 0.3322 0.0000
vt 0.7605 0.3322 0.0000
vt 0.7610 0.1901 0.0000
vt 0.7656 0.1901 0.0000
vt 0.7571 0.3322 0.0000
vt 0.7565 0.1901 0.0000
vt 0.7536 0.3322 0.0000
vt 0.7520 0.1901 0.0000
vt 0.7739 0.4947 0.0000
vt 0.7705 0.4946 0.0000
vt 0.7711 0.3525 0.0000
vt 0.7756 0.3526 0.0000
vt 0.7671 0.4946 0.0000
vt 0.7665 0.3525 0.0000
vt 0.7637 0.4947 0.0000
vt 0.7620 0.3526 0.0000
vt 0.2297 0.9599 0.0000
vt 0.2246 0.9570 0.0000
vt 0.2297 0.9540 0.0000
vt 0.2314 0.9570 0.0000
vt 0.2263 0.9599 0.0000
vt 0.2263 0.9540 0.0000
vt 0.5273 0.9900 0.0000
vt 0.5234 0.9832 0.0000
vt 0.5312 0.9832 0.0000
vt 0.5312 0.9877 0.0000
vt 0.5234 0.9877 0.0000
vt 0.5273 0.9810 0.0000
vt 0.9124 0.0868 0.0000
vt 0.9477 0.0868 0.0000
vt 0.9477 0.0936 0.0000
vt 0.9124 0.0936 0.0000
vt 0.9124 0.0800 0.0000
vt 0.9477 0.0800 0.0000
vt 0.9124 0.0732 0.0000
vt 0.9477 0.0732 0.0000
vt 0.8117 0.8917 0.0000
vt 0.8117 0.8565 0.0000
vt 0.8185 0.8565 0.0000
vt 0.8185 0.8917 0.0000
vt 0.8049 0.8917 0.0000
vt 0.8049 0.8565 0.0000
vt 0.7981 0.8917 0.0000
vt 0.7981 0.8565 0.0000
vt 0.0523 0.9776 0.0000
vt 0.0487 0.9788 0.0000
vt 0.0461 0.9750 0.0000
vt 0.0484 0.9721 0.0000
vt 0.0123 0.9539 0.0000
vt 0.0100 0.9509 0.0000
vt 0.0126 0.9472 0.0000
vt 0.0162 0.9483 0.0000
vt 0.0126 0.9427 0.0000
vt 0.0162 0.9415 0.0000
vt 0.0100 0.9389 0.0000
vt 0.0123 0.9360 0.0000
vt 0.0484 0.9900 0.0000
vt 0.0461 0.9870 0.0000
vt 0.0487 0.9833 0.0000
vt 0.0523 0.9844 0.0000
vt 0.1848 0.8155 0.0000
vt 0.1825 0.8125 0.0000
vt 0.1850 0.8088 0.0000
vt 0.1887 0.8099 0.0000
vt 0.1850 0.8043 0.0000
vt 0.1887 0.8032 0.0000
vt 0.1825 0.8006 0.0000
vt 0.1848 0.7976 0.0000
vt 0.0123 0.8075 0.0000
vt 0.0100 0.8045 0.0000
vt 0.0126 0.8008 0.0000
vt 0.0162 0.8019 0.0000
vt 0.0126 0.7963 0.0000
vt 0.0162 0.7951 0.0000
vt 0.0100 0.7926 0.0000
vt 0.0123 0.7896 0.0000
# 76 texture coords

g Light_01_01
s 1
f 14/4/1 1/1/2 2/2/3 13/3/4 
f 13/3/5 2/2/6 3/5/7 15/6/8 
f 15/6/9 3/5/10 4/7/11 16/8/12 
f 16/12/13 4/9/14 5/10/15 17/11/16 
f 17/11/17 5/10/18 6/13/19 18/14/20 
f 18/14/21 6/13/22 1/15/23 14/16/24 
s 4
f 5/19/25 4/20/26 3/17/27 1/18/28 
f 3/17/29 2/21/30 1/18/31 
f 6/22/32 5/19/33 1/18/34 
f 8/25/35 9/26/36 10/23/37 12/24/38 
f 10/23/39 11/27/40 12/24/41 
f 7/28/42 8/25/43 12/24/44 
f 25/32/45 26/29/46 19/30/47 20/31/48 
f 26/29/49 27/33/50 24/34/51 19/30/52 
f 27/33/53 28/35/54 23/36/55 24/34/56 
f 28/40/57 29/37/58 22/38/59 23/39/60 
f 29/37/61 30/41/62 21/42/63 22/38/64 
f 30/41/65 25/43/66 20/44/67 21/42/68 
f 20/48/69 19/45/70 8/46/71 7/47/72 
f 21/52/73 20/49/74 7/50/75 12/51/76 
f 22/54/77 21/52/78 12/51/79 11/53/80 
f 23/56/81 22/54/82 11/53/83 10/55/84 
f 24/60/85 23/57/86 10/58/87 9/59/88 
f 19/45/89 24/60/90 9/59/91 8/46/92 
f 26/64/93 25/61/94 14/62/95 13/63/96 
f 27/66/97 26/64/98 13/63/99 15/65/100 
f 28/68/101 27/66/102 15/65/103 16/67/104 
f 29/72/105 28/69/106 16/70/107 17/71/108 
f 30/74/109 29/72/110 17/71/111 18/73/112 
f 25/76/113 30/74/114 18/73/115 14/75/116 
# 26 polygons - 4 triangles

