# 3ds Max Wavefront OBJ Exporter v0.97b - (c)2007 guruware
# File Created: 05.03.2017 20:24:43

#
# object KeyHole_01_02
#

v  -11.1185 -0.2532 3.8536
v  -10.5935 -1.1626 5.6723
v  -9.5435 -2.9813 5.6723
v  -9.0185 -3.8906 3.8536
v  -14.2356 -2.0530 3.8536
v  -13.3065 -2.7291 5.6723
v  -11.4486 -4.0811 5.6723
v  -10.5196 -4.7573 3.8536
v  -16.7475 -13.7802 3.8536
v  -15.5222 -13.0727 5.6723
v  -13.0715 -11.6578 5.6723
v  -11.8461 -10.9503 3.8536
v  -5.3355 -17.4684 3.8536
v  -5.4565 -16.3258 5.6723
v  -5.6985 -14.0406 5.6723
v  -5.8195 -12.8980 3.8536
v  -2.2184 -15.6687 3.8536
v  -2.7434 -14.7593 5.6723
v  -3.7934 -12.9407 5.6723
v  -4.3184 -12.0314 3.8536
v  -6.0621 -0.6110 3.8536
v  -8.4871 0.7890 6.2785
v  -13.3369 3.5891 6.2785
v  -15.7617 4.9890 3.8536
v  6.0621 -0.6110 3.8536
v  8.4870 0.7890 6.2785
v  13.3367 3.5891 6.2785
v  15.7616 4.9890 3.8536
v  -0.0001 -11.1110 3.8536
v  -0.0001 -13.9109 6.2785
v  -0.0001 -19.5110 6.2785
v  -0.0001 -22.3110 3.8536
v  -15.7617 4.9890 1.0536
v  15.7616 4.9890 1.0536
v  -0.0001 -22.3110 1.0536
v  8.9000 3.5891 3.8536
v  7.8500 3.5891 5.6723
v  5.7500 3.5891 5.6723
v  4.7000 3.5891 3.8536
v  8.9000 7.1884 3.8536
v  7.8500 6.7219 5.6723
v  5.7500 5.7888 5.6723
v  4.7000 5.3223 3.8536
v  -0.0001 15.2273 3.8536
v  -0.0001 13.8124 5.6723
v  -0.0001 10.9827 5.6723
v  -0.0001 9.5676 3.8536
v  -8.9001 7.1883 3.8536
v  -7.8501 6.7218 5.6723
v  -5.7501 5.7888 5.6723
v  -4.7001 5.3223 3.8536
v  -8.9001 3.5891 3.8536
v  -7.8501 3.5891 5.6723
v  -5.7501 3.5891 5.6723
v  -4.7001 3.5891 3.8536
v  4.7360 -22.5348 1.0536
v  22.6739 -16.7376 1.0536
v  18.7255 1.6957 1.0536
v  13.9703 4.4190 1.0536
v  13.9894 9.8988 1.0536
v  -0.0001 22.5348 1.0536
v  -13.9896 9.8988 1.0536
v  -13.9705 4.4190 1.0536
v  -18.7256 1.6957 1.0536
v  -22.6739 -16.7376 1.0536
v  -4.7361 -22.5348 1.0536
v  -0.0001 -19.7785 1.0536
v  4.9001 -21.0105 3.8536
v  21.0401 -15.7943 3.8536
v  17.4874 0.7914 3.8536
v  12.5675 3.6092 3.8536
v  12.5872 9.2787 3.8536
v  -0.0001 20.6482 3.8536
v  -12.5874 9.2787 3.8536
v  -12.5677 3.6092 3.8536
v  -17.4875 0.7914 3.8536
v  -21.0401 -15.7943 3.8536
v  -4.9002 -21.0105 3.8536
v  -0.0001 -18.1586 3.8536
v  5.4252 -16.1326 3.8536
v  15.8118 -12.7758 3.8536
v  13.5256 -2.1023 3.8536
v  8.0785 1.0174 3.8536
v  8.1003 7.2945 3.8536
v  -0.0001 14.6112 3.8536
v  -8.1005 7.2945 3.8536
v  -8.0786 1.0174 3.8536
v  -13.5258 -2.1023 3.8536
v  -15.8120 -12.7758 3.8536
v  -5.4254 -16.1326 3.8536
v  -0.0001 -12.9751 3.8536
v  2.2183 -15.6687 3.8536
v  2.7433 -14.7593 5.6723
v  3.7933 -12.9407 5.6723
v  4.3183 -12.0314 3.8536
v  5.3354 -17.4683 3.8536
v  5.4564 -16.3258 5.6723
v  5.6984 -14.0406 5.6723
v  5.8194 -12.8980 3.8536
v  16.7474 -13.7801 3.8536
v  15.5221 -13.0727 5.6723
v  13.0714 -11.6578 5.6723
v  11.8460 -10.9503 3.8536
v  14.2355 -2.0530 3.8536
v  13.3065 -2.7291 5.6723
v  11.4485 -4.0811 5.6723
v  10.5195 -4.7573 3.8536
v  11.1184 -0.2532 3.8536
v  10.5934 -1.1626 5.6723
v  9.5434 -2.9813 5.6723
v  9.0184 -3.8906 3.8536
# 111 vertices

vn -0.4330 0.7500 0.5000
vn -0.4330 0.7500 0.5000
vn -0.4330 0.7500 0.5000
vn -0.4330 0.7500 0.5000
vn 0.0000 0.0000 1.0000
vn 0.0000 0.0000 1.0000
vn 0.0000 0.0000 1.0000
vn 0.0000 0.0000 1.0000
vn 0.0000 0.0000 1.0000
vn 0.0000 0.0000 1.0000
vn 0.0000 0.0000 1.0000
vn 0.0000 0.0000 1.0000
vn 0.0000 0.0000 1.0000
vn 0.0000 0.0000 1.0000
vn 0.0000 0.0000 1.0000
vn 0.0000 0.0000 1.0000
vn 0.0000 0.0000 1.0000
vn 0.0000 0.0000 1.0000
vn 0.0000 0.0000 1.0000
vn 0.0000 0.0000 1.0000
vn 0.4330 -0.7500 0.5000
vn 0.4330 -0.7500 0.5000
vn 0.4330 -0.7500 0.5000
vn 0.4330 -0.7500 0.5000
vn -0.8468 0.1814 0.5000
vn -0.8468 0.1814 0.5000
vn -0.8468 0.1814 0.5000
vn -0.8468 0.1814 0.5000
vn 0.8468 -0.1814 0.5000
vn 0.8468 -0.1814 0.5000
vn 0.8468 -0.1814 0.5000
vn 0.8468 -0.1814 0.5000
vn -0.2663 -0.8241 0.5000
vn -0.2663 -0.8241 0.5000
vn -0.2663 -0.8241 0.5000
vn -0.2663 -0.8241 0.5000
vn 0.2663 0.8241 0.5000
vn 0.2663 0.8241 0.5000
vn 0.2663 0.8241 0.5000
vn 0.2663 0.8241 0.5000
vn 0.4330 -0.7500 0.5000
vn 0.4330 -0.7500 0.5000
vn 0.4330 -0.7500 0.5000
vn 0.4330 -0.7500 0.5000
vn -0.4330 0.7500 0.5000
vn -0.4330 0.7500 0.5000
vn -0.4330 0.7500 0.5000
vn -0.4330 0.7500 0.5000
vn 0.0000 0.0000 1.0000
vn 0.0000 0.0000 1.0000
vn 0.0000 0.0000 1.0000
vn 0.0000 0.0000 1.0000
vn 0.0000 0.0000 1.0000
vn 0.0000 0.0000 1.0000
vn 0.0000 0.0000 1.0000
vn 0.0000 -0.8660 0.5000
vn 0.0000 -0.8660 0.5000
vn 0.0000 -0.8660 0.5000
vn 0.0000 -0.8660 0.5000
vn 0.0000 0.0000 1.0000
vn 0.0000 0.0000 1.0000
vn 0.0000 0.0000 1.0000
vn 0.0000 0.0000 1.0000
vn 0.0000 0.0000 1.0000
vn 0.0000 0.0000 1.0000
vn 0.0000 0.0000 1.0000
vn 0.0000 0.0000 1.0000
vn 0.0000 0.0000 1.0000
vn 0.0000 0.0000 1.0000
vn 0.0000 0.0000 1.0000
vn 0.0000 0.0000 1.0000
vn 0.0000 0.9833 0.1822
vn 0.0000 0.8660 0.5000
vn 0.0000 0.8660 0.5000
vn 0.0000 0.9833 0.1822
vn 0.0000 0.9833 0.1822
vn 0.0000 1.0000 -0.0000
vn 0.0000 1.0000 -0.0000
vn 0.0000 0.9833 0.1822
vn -0.7500 0.4330 0.5000
vn -0.7500 0.4330 0.5000
vn -0.7500 0.4330 0.5000
vn -0.7500 0.4330 0.5000
vn 0.8515 -0.4916 0.1822
vn 0.7500 -0.4330 0.5000
vn 0.7500 -0.4330 0.5000
vn 0.8515 -0.4916 0.1822
vn 0.8515 -0.4916 0.1822
vn 0.8660 -0.5000 -0.0000
vn 0.8660 -0.5000 -0.0000
vn 0.8515 -0.4916 0.1822
vn 0.7500 0.4330 0.5000
vn 0.7500 0.4330 0.5000
vn 0.7500 0.4330 0.5000
vn 0.7500 0.4330 0.5000
vn -0.8515 -0.4916 0.1822
vn -0.7500 -0.4330 0.5000
vn -0.7500 -0.4330 0.5000
vn -0.8515 -0.4916 0.1822
vn -0.8515 -0.4916 0.1822
vn -0.8660 -0.5000 -0.0000
vn -0.8660 -0.5000 -0.0000
vn -0.8515 -0.4916 0.1822
vn 0.0000 0.0000 1.0000
vn 0.0000 0.0000 1.0000
vn 0.0000 0.0000 1.0000
vn 0.8660 0.0000 0.5000
vn 0.8660 0.0000 0.5000
vn 0.8660 0.0000 0.5000
vn 0.8660 0.0000 0.5000
vn 0.0000 0.0000 1.0000
vn 0.0000 0.0000 1.0000
vn 0.0000 0.0000 1.0000
vn 0.0000 0.0000 1.0000
vn 0.0000 0.0000 1.0000
vn 0.0000 0.0000 1.0000
vn 0.0000 0.0000 1.0000
vn 0.0000 0.0000 1.0000
vn 0.0000 0.0000 1.0000
vn 0.0000 0.0000 1.0000
vn 0.0000 0.0000 1.0000
vn 0.0000 0.0000 1.0000
vn 0.0000 0.0000 1.0000
vn 0.0000 0.0000 1.0000
vn 0.0000 0.0000 1.0000
vn 0.0000 0.0000 1.0000
vn -0.8660 0.0000 0.5000
vn -0.8660 0.0000 0.5000
vn -0.8660 0.0000 0.5000
vn -0.8660 0.0000 0.5000
vn 0.5805 0.6427 0.5000
vn 0.5805 0.6427 0.5000
vn 0.5805 0.6427 0.5000
vn 0.5805 0.6427 0.5000
vn -0.5805 -0.6427 0.5000
vn -0.5805 -0.6427 0.5000
vn -0.5805 -0.6427 0.5000
vn -0.5805 -0.6427 0.5000
vn -0.5805 0.6427 0.5000
vn -0.5805 0.6427 0.5000
vn -0.5805 0.6427 0.5000
vn -0.5805 0.6427 0.5000
vn 0.5805 -0.6427 0.5000
vn 0.5805 -0.6427 0.5000
vn 0.5805 -0.6427 0.5000
vn 0.5805 -0.6427 0.5000
vn -0.8660 0.0000 0.5000
vn -0.8660 0.0000 0.5000
vn -0.8660 0.0000 0.5000
vn -0.8660 0.0000 0.5000
vn 0.8660 0.0000 0.5000
vn 0.8660 0.0000 0.5000
vn 0.8660 0.0000 0.5000
vn 0.8660 0.0000 0.5000
vn 0.0000 0.0000 1.0000
vn 0.0000 0.0000 1.0000
vn 0.0000 0.0000 1.0000
vn 0.0000 0.0000 1.0000
vn 0.0000 0.0000 1.0000
vn 0.0000 0.0000 1.0000
vn 0.0000 0.0000 1.0000
vn 0.2751 -0.8511 0.4472
vn 0.2751 -0.8511 0.4472
vn 0.2751 -0.8511 0.4472
vn 0.2751 -0.8511 0.4472
vn 0.8746 0.1873 0.4472
vn 0.8746 0.1873 0.4472
vn 0.8746 0.1873 0.4472
vn 0.8746 0.1873 0.4472
vn 0.4445 0.7762 0.4472
vn 0.4445 0.7762 0.4472
vn 0.4445 0.7762 0.4472
vn 0.4445 0.7762 0.4472
vn 0.8944 -0.0031 0.4472
vn 0.8944 -0.0031 0.4472
vn 0.8944 -0.0031 0.4472
vn 0.8944 -0.0031 0.4472
vn 0.5995 0.6638 0.4472
vn 0.5995 0.6637 0.4472
vn 0.5995 0.6637 0.4472
vn 0.5995 0.6638 0.4472
vn -0.5995 0.6638 0.4472
vn -0.5995 0.6638 0.4472
vn -0.5995 0.6637 0.4472
vn -0.5995 0.6637 0.4472
vn -0.8944 -0.0031 0.4472
vn -0.8944 -0.0031 0.4472
vn -0.8944 -0.0031 0.4472
vn -0.8944 -0.0031 0.4472
vn -0.4445 0.7762 0.4472
vn -0.4445 0.7762 0.4472
vn -0.4445 0.7762 0.4472
vn -0.4445 0.7762 0.4472
vn -0.8746 0.1873 0.4472
vn -0.8746 0.1873 0.4472
vn -0.8746 0.1873 0.4472
vn -0.8746 0.1873 0.4472
vn -0.2751 -0.8511 0.4472
vn -0.2751 -0.8511 0.4472
vn -0.2751 -0.8511 0.4472
vn -0.2751 -0.8511 0.4472
vn 0.4499 -0.7730 0.4472
vn 0.4499 -0.7730 0.4472
vn 0.4499 -0.7730 0.4472
vn 0.4499 -0.7730 0.4472
vn -0.4499 -0.7730 0.4472
vn -0.4499 -0.7730 0.4472
vn -0.4499 -0.7730 0.4472
vn -0.4499 -0.7730 0.4472
vn 0.0000 0.0000 1.0000
vn 0.0000 0.0000 1.0000
vn 0.0000 0.0000 1.0000
vn 0.0000 0.0000 1.0000
vn 0.0000 0.0000 1.0000
vn 0.0000 0.0000 1.0000
vn 0.0000 0.0000 1.0000
vn 0.0000 0.0000 1.0000
vn 0.0000 0.0000 1.0000
vn 0.0000 0.0000 1.0000
vn 0.0000 0.0000 1.0000
vn 0.0000 0.0000 1.0000
vn 0.0000 0.0000 1.0000
vn 0.0000 0.0000 1.0000
vn 0.0000 0.0000 1.0000
vn 0.0000 0.0000 1.0000
vn 0.0000 0.0000 1.0000
vn 0.0000 0.0000 1.0000
vn 0.0000 0.0000 1.0000
vn 0.0000 0.0000 1.0000
vn 0.0000 0.0000 1.0000
vn 0.0000 0.0000 1.0000
vn 0.0000 0.0000 1.0000
vn 0.0000 0.0000 1.0000
vn 0.0000 0.0000 1.0000
vn 0.0000 0.0000 1.0000
vn 0.0000 0.0000 1.0000
vn 0.0000 0.0000 1.0000
vn 0.0000 0.0000 1.0000
vn 0.0000 0.0000 1.0000
vn 0.0000 0.0000 1.0000
vn 0.0000 0.0000 1.0000
vn 0.0000 0.0000 1.0000
vn 0.0000 0.0000 1.0000
vn 0.0000 0.0000 1.0000
vn 0.0000 0.0000 1.0000
vn 0.0000 0.0000 1.0000
vn 0.0000 0.0000 1.0000
vn 0.0000 0.0000 1.0000
vn 0.0000 0.0000 1.0000
vn 0.0000 0.0000 1.0000
vn 0.0000 0.0000 1.0000
vn 0.0000 0.0000 1.0000
vn 0.0000 0.0000 1.0000
vn 0.0000 0.0000 1.0000
vn 0.0000 0.0000 1.0000
vn 0.0000 0.0000 1.0000
vn 0.0000 0.0000 1.0000
vn -0.4330 -0.7500 0.5000
vn -0.4330 -0.7500 0.5000
vn -0.4330 -0.7500 0.5000
vn -0.4330 -0.7500 0.5000
vn 0.0000 0.0000 1.0000
vn 0.0000 0.0000 1.0000
vn 0.0000 0.0000 1.0000
vn 0.0000 0.0000 1.0000
vn 0.0000 0.0000 1.0000
vn 0.0000 0.0000 1.0000
vn 0.0000 0.0000 1.0000
vn 0.0000 0.0000 1.0000
vn 0.0000 0.0000 1.0000
vn 0.0000 0.0000 1.0000
vn 0.0000 0.0000 1.0000
vn 0.0000 0.0000 1.0000
vn 0.0000 0.0000 1.0000
vn 0.0000 0.0000 1.0000
vn 0.0000 0.0000 1.0000
vn 0.0000 0.0000 1.0000
vn 0.4330 0.7500 0.5000
vn 0.4330 0.7500 0.5000
vn 0.4330 0.7500 0.5000
vn 0.4330 0.7500 0.5000
vn 0.2663 -0.8241 0.5000
vn 0.2663 -0.8241 0.5000
vn 0.2663 -0.8241 0.5000
vn 0.2663 -0.8241 0.5000
vn -0.2663 0.8241 0.5000
vn -0.2663 0.8241 0.5000
vn -0.2663 0.8241 0.5000
vn -0.2663 0.8241 0.5000
vn 0.8468 0.1814 0.5000
vn 0.8468 0.1814 0.5000
vn 0.8468 0.1814 0.5000
vn 0.8468 0.1814 0.5000
vn -0.8468 -0.1814 0.5000
vn -0.8468 -0.1814 0.5000
vn -0.8468 -0.1814 0.5000
vn -0.8468 -0.1814 0.5000
vn 0.4330 0.7500 0.5000
vn 0.4330 0.7500 0.5000
vn 0.4330 0.7500 0.5000
vn 0.4330 0.7500 0.5000
vn -0.4330 -0.7500 0.5000
vn -0.4330 -0.7500 0.5000
vn -0.4330 -0.7500 0.5000
vn -0.4330 -0.7500 0.5000
vn 0.0000 0.0000 1.0000
vn 0.0000 0.0000 1.0000
vn 0.0000 0.0000 1.0000
vn 0.0000 0.0000 1.0000
vn 0.0000 0.0000 1.0000
vn 0.0000 0.0000 1.0000
vn 0.0000 0.0000 1.0000
# 312 vertex normals

vt 0.0564 0.5002 0.0000
vt 0.0564 0.5216 0.0000
vt 0.0420 0.5216 0.0000
vt 0.0420 0.4970 0.0000
vt 0.6796 0.1284 0.0000
vt 0.6645 0.1284 0.0000
vt 0.6645 0.1141 0.0000
vt 0.6859 0.1141 0.0000
vt 0.7151 0.1677 0.0000
vt 0.7344 0.1677 0.0000
vt 0.6859 0.2214 0.0000
vt 0.6796 0.2070 0.0000
vt 0.6645 0.2214 0.0000
vt 0.6645 0.2070 0.0000
vt 0.9728 0.6285 0.0000
vt 0.9728 0.6167 0.0000
vt 0.9871 0.6167 0.0000
vt 0.9871 0.6317 0.0000
vt 0.9471 0.6943 0.0000
vt 0.9471 0.7666 0.0000
vt 0.9328 0.7698 0.0000
vt 0.9328 0.6878 0.0000
vt 0.2466 0.0793 0.0000
vt 0.2033 0.0793 0.0000
vt 0.2002 0.0649 0.0000
vt 0.2531 0.0649 0.0000
vt 0.5018 0.0949 0.0000
vt 0.5083 0.1093 0.0000
vt 0.4263 0.1093 0.0000
vt 0.4295 0.0949 0.0000
vt 0.6189 0.7775 0.0000
vt 0.6254 0.7918 0.0000
vt 0.5725 0.7918 0.0000
vt 0.5756 0.7775 0.0000
vt 0.8887 0.3040 0.0000
vt 0.9031 0.3009 0.0000
vt 0.9031 0.3255 0.0000
vt 0.8887 0.3255 0.0000
vt 0.3721 0.0169 0.0000
vt 0.3753 0.0312 0.0000
vt 0.3603 0.0312 0.0000
vt 0.3603 0.0169 0.0000
vt 0.1443 0.3024 0.0000
vt 0.0801 0.3024 0.0000
vt 0.0801 0.2906 0.0000
vt 0.1443 0.2906 0.0000
vt 0.1122 0.3315 0.0000
vt 0.8307 0.5471 0.0000
vt 0.8307 0.4642 0.0000
vt 0.8498 0.4476 0.0000
vt 0.8498 0.5637 0.0000
vt 0.3294 0.7572 0.0000
vt 0.3874 0.8576 0.0000
vt 0.3874 0.8959 0.0000
vt 0.2962 0.7380 0.0000
vt 0.4454 0.7572 0.0000
vt 0.4786 0.7380 0.0000
vt 0.4711 0.2974 0.0000
vt 0.2888 0.2974 0.0000
vt 0.2722 0.2783 0.0000
vt 0.4877 0.2783 0.0000
vt 0.5298 0.1373 0.0000
vt 0.4469 0.1373 0.0000
vt 0.4303 0.1182 0.0000
vt 0.5464 0.1182 0.0000
vt 0.2728 0.9517 0.0000
vt 0.4551 0.9517 0.0000
vt 0.4717 0.9709 0.0000
vt 0.2562 0.9709 0.0000
vt 0.7426 0.2048 0.0000
vt 0.7426 0.1219 0.0000
vt 0.7617 0.1054 0.0000
vt 0.7617 0.2214 0.0000
vt 0.6966 0.8533 0.0000
vt 0.6966 0.6710 0.0000
vt 0.7157 0.6544 0.0000
vt 0.7157 0.8699 0.0000
vt 0.2722 0.2592 0.0000
vt 0.4877 0.2592 0.0000
vt 0.4717 0.9900 0.0000
vt 0.2562 0.9900 0.0000
vt 0.7348 0.6544 0.0000
vt 0.7348 0.8699 0.0000
vt 0.9024 0.3827 0.0000
vt 0.9024 0.4656 0.0000
vt 0.8307 0.4241 0.0000
vt 0.5348 0.0158 0.0000
vt 0.5348 0.0372 0.0000
vt 0.5204 0.0372 0.0000
vt 0.5204 0.0126 0.0000
vt 0.0804 0.6207 0.0000
vt 0.0804 0.6357 0.0000
vt 0.0660 0.6357 0.0000
vt 0.0660 0.6143 0.0000
vt 0.1197 0.5852 0.0000
vt 0.1197 0.5658 0.0000
vt 0.1734 0.6143 0.0000
vt 0.1590 0.6207 0.0000
vt 0.1734 0.6357 0.0000
vt 0.1590 0.6357 0.0000
vt 0.9728 0.5805 0.0000
vt 0.9728 0.5686 0.0000
vt 0.9871 0.5686 0.0000
vt 0.9871 0.5837 0.0000
vt 0.9522 0.2654 0.0000
vt 0.8799 0.2654 0.0000
vt 0.8767 0.2511 0.0000
vt 0.9587 0.2511 0.0000
vt 0.3628 0.0569 0.0000
vt 0.4061 0.0569 0.0000
vt 0.4092 0.0713 0.0000
vt 0.3563 0.0713 0.0000
vt 0.9411 0.6112 0.0000
vt 0.9267 0.6177 0.0000
vt 0.9267 0.5357 0.0000
vt 0.9411 0.5389 0.0000
vt 0.6886 0.0388 0.0000
vt 0.7029 0.0323 0.0000
vt 0.7029 0.0853 0.0000
vt 0.6886 0.0821 0.0000
vt 0.4047 0.6045 0.0000
vt 0.3903 0.6077 0.0000
vt 0.3903 0.5831 0.0000
vt 0.4047 0.5831 0.0000
vt 0.9740 0.4175 0.0000
vt 0.9708 0.4032 0.0000
vt 0.9858 0.4032 0.0000
vt 0.9858 0.4175 0.0000
vt 0.5294 0.1093 0.0000
vt 0.5294 0.0450 0.0000
vt 0.5413 0.0450 0.0000
vt 0.5413 0.1093 0.0000
vt 0.5004 0.0772 0.0000
vt 0.8100 0.5729 0.0000
vt 0.8100 0.7018 0.0000
vt 0.7886 0.6931 0.0000
vt 0.7886 0.5772 0.0000
vt 0.6559 0.2594 0.0000
vt 0.6345 0.2551 0.0000
vt 0.6345 0.1392 0.0000
vt 0.6559 0.1306 0.0000
vt 0.6441 0.0853 0.0000
vt 0.6385 0.0639 0.0000
vt 0.6773 0.0639 0.0000
vt 0.6815 0.0853 0.0000
vt 0.1056 0.0619 0.0000
vt 0.1431 0.0619 0.0000
vt 0.1388 0.0833 0.0000
vt 0.1001 0.0833 0.0000
vt 0.4243 0.2100 0.0000
vt 0.5532 0.2100 0.0000
vt 0.5445 0.2314 0.0000
vt 0.4286 0.2314 0.0000
vt 0.2982 0.9440 0.0000
vt 0.3025 0.9226 0.0000
vt 0.4184 0.9226 0.0000
vt 0.4271 0.9440 0.0000
vt 0.5960 0.3995 0.0000
vt 0.5905 0.3781 0.0000
vt 0.6292 0.3781 0.0000
vt 0.6335 0.3995 0.0000
vt 0.7420 0.2954 0.0000
vt 0.7046 0.2954 0.0000
vt 0.7088 0.2740 0.0000
vt 0.7476 0.2740 0.0000
vt 0.1389 0.2114 0.0000
vt 0.0100 0.2114 0.0000
vt 0.0186 0.1900 0.0000
vt 0.1346 0.1900 0.0000
vt 0.4243 0.2014 0.0000
vt 0.4286 0.1800 0.0000
vt 0.5445 0.1800 0.0000
vt 0.5532 0.2014 0.0000
vt 0.1557 0.0833 0.0000
vt 0.1501 0.0619 0.0000
vt 0.1889 0.0619 0.0000
vt 0.1931 0.0833 0.0000
vt 0.3403 0.9084 0.0000
vt 0.3403 0.8709 0.0000
vt 0.3617 0.8752 0.0000
vt 0.3617 0.9139 0.0000
vt 0.5240 0.7562 0.0000
vt 0.6298 0.7088 0.0000
vt 0.6171 0.7480 0.0000
vt 0.5490 0.7786 0.0000
vt 0.6877 0.8092 0.0000
vt 0.6544 0.8126 0.0000
vt 0.6757 0.8460 0.0000
vt 0.6411 0.8534 0.0000
vt 0.7018 0.8747 0.0000
vt 0.6699 0.8852 0.0000
vt 0.6900 0.9900 0.0000
vt 0.6624 0.9594 0.0000
vt 0.5741 0.9900 0.0000
vt 0.5878 0.9594 0.0000
vt 0.5482 0.9612 0.0000
vt 0.5591 0.9274 0.0000
vt 0.5103 0.9694 0.0000
vt 0.5172 0.9366 0.0000
vt 0.4163 0.9016 0.0000
vt 0.4567 0.8929 0.0000
vt 0.4743 0.8011 0.0000
vt 0.4940 0.8283 0.0000
vt 0.5122 0.7932 0.0000
vt 0.5360 0.8195 0.0000
vt 0.9591 0.3020 0.0000
vt 0.9591 0.3235 0.0000
vt 0.9448 0.3235 0.0000
vt 0.9448 0.2989 0.0000
vt 0.8815 0.1790 0.0000
vt 0.8965 0.1790 0.0000
vt 0.8965 0.1934 0.0000
vt 0.8751 0.1934 0.0000
vt 0.8460 0.1397 0.0000
vt 0.8267 0.1397 0.0000
vt 0.8751 0.0860 0.0000
vt 0.8815 0.1004 0.0000
vt 0.8965 0.0860 0.0000
vt 0.8965 0.1004 0.0000
vt 0.9740 0.2591 0.0000
vt 0.9858 0.2591 0.0000
vt 0.9858 0.2734 0.0000
vt 0.9708 0.2734 0.0000
vt 0.8971 0.4922 0.0000
vt 0.8971 0.5645 0.0000
vt 0.8827 0.5677 0.0000
vt 0.8827 0.4857 0.0000
vt 0.6450 0.6217 0.0000
vt 0.6017 0.6217 0.0000
vt 0.5985 0.6073 0.0000
vt 0.6514 0.6073 0.0000
vt 0.9062 0.2010 0.0000
vt 0.9126 0.2154 0.0000
vt 0.8307 0.2154 0.0000
vt 0.8339 0.2010 0.0000
vt 0.6050 0.5757 0.0000
vt 0.5985 0.5613 0.0000
vt 0.6514 0.5613 0.0000
vt 0.6482 0.5757 0.0000
vt 0.8419 0.0272 0.0000
vt 0.8387 0.0129 0.0000
vt 0.8633 0.0129 0.0000
vt 0.8633 0.0272 0.0000
vt 0.9871 0.6045 0.0000
vt 0.9728 0.6077 0.0000
vt 0.9728 0.5927 0.0000
vt 0.9871 0.5927 0.0000
vt 0.3543 0.1114 0.0000
vt 0.4185 0.1114 0.0000
vt 0.4185 0.1233 0.0000
vt 0.3543 0.1233 0.0000
vt 0.3864 0.0824 0.0000
# 252 texture coords

g KeyHole_01_02
s 1
f 1/3/1 5/4/2 6/1/3 2/2/4 
s 2
f 2/7/5 6/8/6 7/5/7 3/6/8 
f 6/8/9 10/10/10 11/9/11 7/5/12 
f 14/11/13 15/12/14 11/9/15 10/10/16 
f 18/13/17 19/14/18 15/12/19 14/11/20 
s 1
f 3/17/21 7/18/22 8/15/23 4/16/24 
s 4
f 5/21/25 9/22/26 10/19/27 6/20/28 
f 7/25/29 11/26/30 12/23/31 8/24/32 
s 1
f 13/29/33 14/30/34 10/27/35 9/28/36 
f 15/33/37 16/34/38 12/31/39 11/32/40 
s 4
f 17/37/41 18/38/42 14/35/43 13/36/44 
f 19/41/45 20/42/46 16/39/47 15/40/48 
s 2
f 4/46/49 8/43/50 16/44/51 20/45/52 
f 12/47/53 16/44/54 8/43/55 
s 1
f 22/51/56 21/48/57 25/49/58 26/50/59 
s 2
f 23/55/60 22/52/61 26/53/62 27/54/63 
f 27/54/64 26/53/65 30/56/66 31/57/67 
f 31/57/68 30/56/69 22/52/70 23/55/71 
s 1
f 24/61/72 23/58/73 27/59/74 28/60/75 
f 28/60/76 34/78/77 33/79/78 24/61/79 
s 4
f 26/65/80 25/62/81 29/63/82 30/64/83 
f 28/69/84 27/66/85 31/67/86 32/68/87 
f 32/68/88 35/80/89 34/81/90 28/69/91 
s 8
f 30/73/92 29/70/93 21/71/94 22/72/95 
f 32/77/96 31/74/97 23/75/98 24/76/99 
f 24/76/100 33/82/101 35/83/102 32/77/103 
s 2
f 21/84/104 29/85/105 25/86/106 
s 1
f 36/89/107 40/90/108 41/87/109 37/88/110 
s 2
f 37/93/111 41/94/112 42/91/113 38/92/114 
f 41/94/115 45/96/116 46/95/117 42/91/118 
f 49/97/119 50/98/120 46/95/121 45/96/122 
f 53/99/123 54/100/124 50/98/125 49/97/126 
s 1
f 38/103/127 42/104/128 43/101/129 39/102/130 
s 4
f 40/107/131 44/108/132 45/105/133 41/106/134 
f 42/111/135 46/112/136 47/109/137 43/110/138 
s 1
f 48/115/139 49/116/140 45/113/141 44/114/142 
f 50/119/143 51/120/144 47/117/145 46/118/146 
s 4
f 52/123/147 53/124/148 49/121/149 48/122/150 
f 54/127/151 55/128/152 51/125/153 50/126/154 
s 2
f 39/132/155 43/129/156 51/130/157 55/131/158 
f 47/133/159 51/130/160 43/129/161 
s 1
f 69/136/162 68/137/163 56/134/164 57/135/165 
s 2
f 69/140/166 57/141/167 58/138/168 70/139/169 
s 1
f 70/144/170 58/145/171 59/142/172 71/143/173 
s 2
f 72/148/174 71/149/175 59/146/176 60/147/177 
s 1
f 73/152/178 72/153/179 60/150/180 61/151/181 
s 2
f 73/156/182 61/157/183 62/154/184 74/155/185 
s 1
f 74/160/186 62/161/187 63/158/188 75/159/189 
s 2
f 76/164/190 75/165/191 63/162/192 64/163/193 
s 1
f 77/168/194 76/169/195 64/166/196 65/167/197 
s 2
f 77/172/198 65/173/199 66/170/200 78/171/201 
s 1
f 78/176/202 66/177/203 67/174/204 79/175/205 
s 2
f 68/180/206 79/181/207 67/178/208 56/179/209 
s 4
f 81/184/210 80/185/211 68/182/212 69/183/213 
f 81/184/214 69/183/215 70/186/216 82/187/217 
f 82/187/218 70/186/219 71/188/220 83/189/221 
f 84/191/222 83/189/223 71/188/224 72/190/225 
f 85/193/226 84/191/227 72/190/228 73/192/229 
f 85/193/230 73/192/231 74/194/232 86/195/233 
f 86/195/234 74/194/235 75/196/236 87/197/237 
f 88/199/238 87/197/239 75/196/240 76/198/241 
f 89/201/242 88/199/243 76/198/244 77/200/245 
f 89/201/246 77/200/247 78/202/248 90/203/249 
f 90/203/250 78/202/251 79/204/252 91/205/253 
f 80/185/254 91/205/255 79/204/256 68/182/257 
s 1
f 92/208/258 96/209/259 97/206/260 93/207/261 
s 2
f 93/212/262 97/213/263 98/210/264 94/211/265 
f 97/213/266 101/215/267 102/214/268 98/210/269 
f 105/216/270 106/217/271 102/214/272 101/215/273 
f 109/218/274 110/219/275 106/217/276 105/216/277 
s 1
f 94/222/278 98/223/279 99/220/280 95/221/281 
s 4
f 96/226/282 100/227/283 101/224/284 97/225/285 
f 98/230/286 102/231/287 103/228/288 99/229/289 
s 1
f 104/234/290 105/235/291 101/232/292 100/233/293 
f 106/238/294 107/239/295 103/236/296 102/237/297 
s 4
f 108/242/298 109/243/299 105/240/300 104/241/301 
f 110/246/302 111/247/303 107/244/304 106/245/305 
s 2
f 95/251/306 99/248/307 107/249/308 111/250/309 
f 103/252/310 107/249/311 99/248/312 
# 75 polygons - 4 triangles

