# 3ds Max Wavefront OBJ Exporter v0.97b - (c)2007 guruware
# File Created: 05.03.2017 20:24:51

#
# object KeyHole_01_03
#

v  0.0000 13.5054 5.5913
v  1.6173 9.9011 5.5913
v  4.1566 10.0099 5.5913
v  0.0000 18.6290 5.5913
v  0.0000 21.1908 4.2923
v  -4.5695 11.0069 4.2923
v  -1.6173 9.9011 5.5913
v  0.0000 11.4720 4.5602
v  4.5695 11.0069 4.2923
v  3.7462 9.0192 5.5913
v  -3.7462 9.0192 5.5913
v  9.5674 9.5425 5.5913
v  8.1623 5.8502 5.5913
v  13.1903 13.1654 5.5913
v  15.0018 14.9769 4.2923
v  5.8752 8.1374 5.5913
v  8.1295 8.1046 4.5602
v  11.0318 4.5446 4.2923
v  -13.5303 -0.0249 5.5913
v  -9.9260 1.5924 5.5913
v  -10.0348 4.1316 5.5913
v  -18.6539 -0.0249 5.5913
v  -10.0348 -4.1814 5.5913
v  -21.2157 -0.0249 4.2923
v  -11.0317 -4.5944 4.2923
v  -9.9260 -1.6422 5.5913
v  -11.4969 -0.0249 4.5602
v  -11.0318 4.5446 4.2923
v  -9.0441 3.7213 5.5913
v  -9.5674 9.5425 5.5913
v  -5.8751 8.1374 5.5913
v  -4.1565 10.0099 5.5913
v  -13.1903 13.1654 5.5913
v  -15.0018 14.9769 4.2923
v  -8.1623 5.8502 5.5913
v  -8.1295 8.1046 4.5602
v  10.0348 4.1316 5.5913
v  9.0442 3.7213 5.5913
v  -9.0441 -3.7711 5.5913
v  13.5303 -0.0249 5.5913
v  9.9260 -1.6422 5.5913
v  10.0348 -4.1814 5.5913
v  18.6539 -0.0249 5.5913
v  21.2157 -0.0249 4.2923
v  9.9260 1.5924 5.5913
v  11.4969 -0.0249 4.5602
v  11.0318 -4.5944 4.2923
v  9.0442 -3.7711 5.5913
v  9.5674 -9.5923 5.5913
v  5.8752 -8.1872 5.5913
v  4.1566 -10.0597 5.5913
v  13.1903 -13.2152 5.5913
v  15.0018 -15.0267 4.2923
v  8.1623 -5.9000 5.5913
v  8.1295 -8.1544 4.5602
v  4.5696 -11.0567 4.2923
v  3.7462 -9.0690 5.5913
v  0.0000 -13.5552 5.5913
v  -1.6172 -9.9508 5.5913
v  -4.1565 -10.0597 5.5913
v  0.0000 -18.6788 5.5913
v  0.0000 -21.2406 4.2923
v  1.6173 -9.9508 5.5913
v  0.0000 -11.5218 4.5602
v  -4.5695 -11.0567 4.2923
v  -3.7462 -9.0690 5.5913
v  -9.5674 -9.5923 5.5913
v  -8.1623 -5.9000 5.5913
v  -13.1903 -13.2152 5.5913
v  -15.0018 -15.0267 4.2923
v  -5.8751 -8.1872 5.5913
v  -8.1295 -8.1544 4.5602
v  7.2249 7.1999 6.0244
v  10.2175 -0.0249 6.0244
v  11.7310 -0.0249 4.2923
v  8.2951 8.2702 4.2923
v  5.6769 -0.0249 4.2923
v  4.0142 3.9893 4.2923
v  7.1904 -0.0249 6.0244
v  5.0844 5.0595 6.0244
v  7.2249 -7.2498 6.0244
v  8.2951 -8.3200 4.2923
v  4.0142 -4.0391 4.2923
v  5.0844 -5.1093 6.0244
v  0.0000 -10.2424 6.0244
v  0.0000 -11.7559 4.2923
v  0.0000 -5.7018 4.2923
v  0.0000 -7.2153 6.0244
v  -7.2248 -7.2498 6.0244
v  -8.2951 -8.3200 4.2923
v  -4.0142 -4.0391 4.2923
v  -5.0844 -5.1093 6.0244
v  -10.2175 -0.0249 6.0244
v  -11.7310 -0.0249 4.2923
v  -5.6769 -0.0249 4.2923
v  -7.1904 -0.0249 6.0244
v  -7.2248 7.1999 6.0244
v  -8.2951 8.2702 4.2923
v  -4.0142 3.9893 4.2923
v  -5.0844 5.0595 6.0244
v  0.0000 10.1926 6.0244
v  0.0000 11.7061 4.2923
v  0.0000 5.6520 4.2923
v  0.0000 7.1655 6.0244
v  25.8929 0.0000 1.4308
v  18.3091 18.3090 1.4308
v  0.0000 25.8929 1.4308
v  -18.3090 18.3090 1.4308
v  -25.8929 0.0000 1.4308
v  -18.3090 -18.3091 1.4308
v  0.0000 -25.8929 1.4308
v  18.3091 -18.3091 1.4308
v  23.6253 0.0000 4.2241
v  16.7056 16.7056 4.2241
v  0.0000 23.6253 4.2241
v  -16.7056 16.7056 4.2241
v  -23.6253 0.0000 4.2241
v  -16.7056 -16.7056 4.2241
v  0.0000 -23.6253 4.2241
v  16.7056 -16.7056 4.2241
# 120 vertices

vn 0.0000 0.0000 1.0000
vn 0.0000 0.0000 1.0000
vn 0.0000 0.0000 1.0000
vn 0.0000 0.0000 1.0000
vn 0.0000 0.0000 1.0000
vn 0.0000 0.0000 1.0000
vn 0.0000 0.0000 1.0000
vn 0.0000 0.0000 1.0000
vn 0.0000 0.0000 1.0000
vn 0.0000 0.0000 1.0000
vn 0.0000 0.0000 1.0000
vn 0.0000 0.0000 1.0000
vn 0.0000 0.0000 1.0000
vn 0.0000 0.0000 1.0000
vn 0.0000 0.0000 1.0000
vn 0.0000 0.0000 1.0000
vn 0.0000 0.0000 1.0000
vn 0.0000 0.0000 1.0000
vn 0.0000 0.0000 1.0000
vn 0.0000 0.0000 1.0000
vn 0.0000 0.0000 1.0000
vn 0.0000 0.0000 1.0000
vn 0.0000 0.0000 1.0000
vn 0.0000 0.0000 1.0000
vn 0.0000 0.0000 1.0000
vn 0.0000 0.0000 1.0000
vn 0.0000 0.0000 1.0000
vn 0.0000 0.0000 1.0000
vn 0.0000 0.0000 1.0000
vn 0.0000 0.0000 1.0000
vn 0.0000 0.0000 1.0000
vn 0.0000 0.0000 1.0000
vn 0.0000 0.0000 1.0000
vn 0.0000 0.0000 1.0000
vn 0.0000 0.0000 1.0000
vn 0.0000 0.0000 1.0000
vn 0.0000 0.0000 1.0000
vn 0.0000 0.0000 1.0000
vn 0.0000 0.0000 1.0000
vn 0.0000 0.0000 1.0000
vn 0.0000 0.0000 1.0000
vn 0.0000 0.0000 1.0000
vn 0.0000 0.0000 1.0000
vn 0.0000 0.0000 1.0000
vn 0.0000 0.0000 1.0000
vn 0.0000 0.0000 1.0000
vn 0.0000 0.0000 1.0000
vn 0.0000 0.0000 1.0000
vn 0.0000 0.0000 1.0000
vn 0.0000 0.0000 1.0000
vn 0.0000 0.0000 1.0000
vn 0.0000 0.0000 1.0000
vn 0.0000 0.0000 1.0000
vn 0.0000 0.0000 1.0000
vn 0.0000 0.0000 1.0000
vn 0.0000 0.0000 1.0000
vn 0.0000 0.0000 1.0000
vn 0.0000 0.0000 1.0000
vn 0.0000 0.0000 1.0000
vn 0.0000 0.0000 1.0000
vn 0.0000 0.0000 1.0000
vn 0.0000 0.0000 1.0000
vn 0.0000 0.0000 1.0000
vn 0.0000 0.0000 1.0000
vn 0.0000 0.0000 1.0000
vn 0.0000 0.0000 1.0000
vn 0.0000 0.0000 1.0000
vn 0.0000 0.0000 1.0000
vn 0.0000 0.0000 1.0000
vn 0.0000 0.0000 1.0000
vn 0.0000 0.0000 1.0000
vn 0.0000 0.0000 1.0000
vn 0.0000 0.0000 1.0000
vn 0.0000 0.0000 1.0000
vn 0.0000 0.0000 1.0000
vn 0.0000 0.0000 1.0000
vn 0.0000 0.0000 1.0000
vn 0.0000 0.0000 1.0000
vn 0.0000 0.0000 1.0000
vn 0.0000 0.0000 1.0000
vn 0.0000 0.0000 1.0000
vn 0.0000 0.0000 1.0000
vn 0.0000 0.0000 1.0000
vn 0.0000 0.0000 1.0000
vn 0.0000 0.0000 1.0000
vn 0.0000 0.0000 1.0000
vn 0.0000 0.0000 1.0000
vn 0.0000 0.0000 1.0000
vn 0.0000 0.0000 1.0000
vn 0.0000 0.0000 1.0000
vn 0.0000 0.0000 1.0000
vn 0.0000 0.0000 1.0000
vn 0.0000 0.0000 1.0000
vn 0.0000 0.0000 1.0000
vn 0.0000 0.0000 1.0000
vn 0.0000 0.0000 1.0000
vn 0.0000 0.0000 1.0000
vn 0.0000 0.0000 1.0000
vn 0.0000 0.0000 1.0000
vn 0.0000 0.0000 1.0000
vn 0.0000 0.0000 1.0000
vn 0.0000 0.0000 1.0000
vn 0.0000 0.0000 1.0000
vn 0.0000 0.0000 1.0000
vn 0.0000 0.0000 1.0000
vn 0.0000 0.0000 1.0000
vn 0.0000 0.0000 1.0000
vn 0.0000 0.0000 1.0000
vn 0.0000 0.0000 1.0000
vn 0.0000 0.0000 1.0000
vn 0.0000 0.0000 1.0000
vn 0.0000 0.0000 1.0000
vn -0.7610 0.3648 0.5365
vn -0.7656 0.3692 0.5268
vn -0.7141 0.3221 0.6216
vn -0.7099 0.3185 0.6282
vn 0.7099 -0.3185 0.6282
vn 0.7099 -0.3185 0.6282
vn 0.7099 -0.3185 0.6282
vn 0.7141 0.3221 0.6216
vn 0.7656 0.3692 0.5268
vn 0.7610 0.3648 0.5365
vn 0.7099 0.3185 0.6282
vn -0.7099 -0.3185 0.6282
vn -0.7099 -0.3185 0.6282
vn -0.7099 -0.3185 0.6282
vn -0.2802 0.7960 0.5365
vn -0.2803 0.8024 0.5268
vn -0.2771 0.7327 0.6216
vn -0.2767 0.7272 0.6282
vn 0.2767 -0.7272 0.6282
vn 0.2767 -0.7272 0.6282
vn 0.2767 -0.7272 0.6282
vn 0.7327 -0.2771 0.6216
vn 0.8025 -0.2803 0.5268
vn 0.7960 -0.2802 0.5365
vn 0.7272 -0.2767 0.6282
vn -0.7272 0.2767 0.6282
vn -0.7272 0.2767 0.6282
vn -0.7272 0.2767 0.6282
vn -0.3648 -0.7610 0.5365
vn -0.3692 -0.7656 0.5268
vn -0.3221 -0.7141 0.6216
vn -0.3185 -0.7099 0.6282
vn 0.3185 0.7099 0.6282
vn 0.3185 0.7099 0.6282
vn 0.3185 0.7099 0.6282
vn -0.3221 0.7141 0.6216
vn -0.3692 0.7656 0.5268
vn -0.3648 0.7610 0.5365
vn -0.3185 0.7099 0.6282
vn 0.3185 -0.7099 0.6282
vn 0.3185 -0.7099 0.6282
vn 0.3185 -0.7099 0.6282
vn -0.7960 -0.2802 0.5365
vn -0.8025 -0.2803 0.5268
vn -0.7327 -0.2771 0.6216
vn -0.7272 -0.2767 0.6282
vn 0.7272 0.2767 0.6282
vn 0.7272 0.2767 0.6282
vn 0.7272 0.2767 0.6282
vn 0.2771 0.7327 0.6216
vn 0.2803 0.8025 0.5268
vn 0.2802 0.7960 0.5365
vn 0.2767 0.7272 0.6282
vn -0.2767 -0.7272 0.6282
vn -0.2767 -0.7272 0.6282
vn -0.2767 -0.7272 0.6282
vn 0.3648 0.7610 0.5365
vn 0.3692 0.7656 0.5268
vn 0.3221 0.7141 0.6216
vn 0.3185 0.7099 0.6282
vn -0.3185 -0.7099 0.6282
vn -0.3185 -0.7099 0.6282
vn -0.3185 -0.7099 0.6282
vn 0.3221 -0.7141 0.6216
vn 0.3692 -0.7656 0.5268
vn 0.3648 -0.7610 0.5365
vn 0.3185 -0.7099 0.6282
vn -0.3185 0.7099 0.6282
vn -0.3185 0.7099 0.6282
vn -0.3185 0.7099 0.6282
vn 0.7960 0.2802 0.5365
vn 0.8025 0.2803 0.5268
vn 0.7327 0.2771 0.6216
vn 0.7272 0.2767 0.6282
vn -0.7272 -0.2767 0.6282
vn -0.7272 -0.2767 0.6282
vn -0.7272 -0.2767 0.6282
vn -0.2771 -0.7327 0.6216
vn -0.2803 -0.8025 0.5268
vn -0.2802 -0.7960 0.5365
vn -0.2767 -0.7272 0.6282
vn 0.2767 0.7272 0.6282
vn 0.2767 0.7272 0.6282
vn 0.2767 0.7272 0.6282
vn 0.7610 -0.3648 0.5365
vn 0.7656 -0.3692 0.5268
vn 0.7140 -0.3222 0.6216
vn 0.7099 -0.3185 0.6282
vn -0.7099 0.3185 0.6282
vn -0.7099 0.3185 0.6282
vn -0.7099 0.3185 0.6282
vn -0.7141 -0.3221 0.6216
vn -0.7656 -0.3692 0.5268
vn -0.7610 -0.3648 0.5365
vn -0.7099 -0.3185 0.6282
vn 0.7099 0.3185 0.6281
vn 0.7099 0.3185 0.6281
vn 0.7099 0.3185 0.6281
vn 0.2802 -0.7960 0.5365
vn 0.2803 -0.8025 0.5268
vn 0.2771 -0.7327 0.6216
vn 0.2767 -0.7272 0.6282
vn -0.2767 0.7272 0.6282
vn -0.2767 0.7272 0.6282
vn -0.2767 0.7272 0.6282
vn -0.7327 0.2771 0.6216
vn -0.8025 0.2803 0.5267
vn -0.7961 0.2802 0.5365
vn -0.7272 0.2767 0.6282
vn 0.7272 -0.2767 0.6282
vn 0.7272 -0.2767 0.6282
vn 0.7272 -0.2767 0.6282
vn 0.7189 0.2978 0.6282
vn 0.7189 0.2978 0.6282
vn 0.7189 0.2978 0.6281
vn 0.7189 0.2978 0.6281
vn -0.7189 -0.2978 0.6281
vn -0.7189 -0.2978 0.6281
vn -0.7189 -0.2978 0.6281
vn -0.7189 -0.2978 0.6281
vn 0.0000 0.0000 1.0000
vn 0.0000 0.0000 1.0000
vn 0.0000 0.0000 1.0000
vn 0.0000 0.0000 1.0000
vn 0.0000 0.0000 1.0000
vn 0.0000 0.0000 1.0000
vn 0.0000 0.0000 1.0000
vn 0.0000 0.0000 1.0000
vn 0.0000 0.0000 1.0000
vn 0.0000 0.0000 1.0000
vn 0.0000 0.0000 1.0000
vn 0.0000 0.0000 1.0000
vn 0.0000 0.0000 1.0000
vn 0.0000 0.0000 1.0000
vn 0.0000 0.0000 1.0000
vn 0.0000 0.0000 1.0000
vn 0.0000 0.0000 1.0000
vn 0.0000 0.0000 1.0000
vn 0.0000 0.0000 1.0000
vn 0.0000 0.0000 1.0000
vn 0.0000 0.0000 1.0000
vn 0.0000 0.0000 1.0000
vn 0.0000 0.0000 1.0000
vn 0.0000 0.0000 1.0000
vn 0.0000 0.0000 1.0000
vn 0.0000 0.0000 1.0000
vn 0.0000 0.0000 1.0000
vn 0.0000 0.0000 1.0000
vn 0.0000 0.0000 1.0000
vn 0.0000 0.0000 1.0000
vn 0.0000 0.0000 1.0000
vn 0.0000 0.0000 1.0000
vn 0.7189 -0.2978 0.6281
vn 0.7189 -0.2978 0.6281
vn 0.7189 -0.2978 0.6281
vn 0.7189 -0.2978 0.6281
vn -0.7189 0.2978 0.6281
vn -0.7189 0.2978 0.6281
vn -0.7189 0.2978 0.6281
vn -0.7189 0.2978 0.6281
vn 0.2978 -0.7189 0.6281
vn 0.2978 -0.7189 0.6281
vn 0.2978 -0.7189 0.6281
vn 0.2978 -0.7189 0.6281
vn -0.2978 0.7189 0.6281
vn -0.2978 0.7189 0.6281
vn -0.2978 0.7189 0.6281
vn -0.2978 0.7189 0.6281
vn -0.2978 -0.7189 0.6281
vn -0.2978 -0.7189 0.6281
vn -0.2978 -0.7189 0.6281
vn -0.2978 -0.7189 0.6282
vn 0.2978 0.7189 0.6281
vn 0.2978 0.7189 0.6281
vn 0.2978 0.7189 0.6281
vn 0.2978 0.7189 0.6281
vn -0.7189 -0.2978 0.6282
vn -0.7188 -0.2978 0.6282
vn -0.7189 -0.2978 0.6281
vn -0.7189 -0.2978 0.6281
vn 0.7189 0.2978 0.6281
vn 0.7189 0.2978 0.6281
vn 0.7189 0.2978 0.6281
vn 0.7189 0.2978 0.6281
vn -0.7189 0.2978 0.6281
vn -0.7189 0.2978 0.6281
vn -0.7188 0.2978 0.6282
vn -0.7188 0.2978 0.6282
vn 0.7189 -0.2978 0.6281
vn 0.7189 -0.2978 0.6281
vn 0.7189 -0.2978 0.6281
vn 0.7189 -0.2978 0.6281
vn -0.2978 0.7188 0.6282
vn -0.2978 0.7188 0.6282
vn -0.2978 0.7189 0.6281
vn -0.2978 0.7189 0.6281
vn 0.2978 -0.7189 0.6281
vn 0.2978 -0.7189 0.6281
vn 0.2978 -0.7189 0.6281
vn 0.2978 -0.7189 0.6281
vn 0.2978 0.7189 0.6281
vn 0.2978 0.7189 0.6281
vn 0.2978 0.7189 0.6282
vn 0.2978 0.7189 0.6282
vn -0.2978 -0.7189 0.6281
vn -0.2978 -0.7189 0.6281
vn -0.2978 -0.7189 0.6281
vn -0.2978 -0.7189 0.6281
vn 0.0000 0.0000 1.0000
vn 0.0000 0.0000 1.0000
vn 0.0000 0.0000 1.0000
vn 0.0000 0.0000 1.0000
vn 0.0000 0.0000 1.0000
vn 0.0000 0.0000 1.0000
vn 0.0000 0.0000 1.0000
vn 0.0000 0.0000 1.0000
vn 0.0000 0.0000 1.0000
vn 0.0000 0.0000 1.0000
vn 0.0000 0.0000 1.0000
vn 0.0000 0.0000 1.0000
vn 0.0000 0.0000 1.0000
vn 0.0000 0.0000 1.0000
vn 0.7391 0.3061 0.6000
vn 0.7391 0.3061 0.6000
vn 0.7391 0.3061 0.6000
vn 0.7391 0.3061 0.6000
vn 0.3061 0.7391 0.6000
vn 0.3061 0.7391 0.6000
vn 0.3061 0.7391 0.6000
vn 0.3061 0.7391 0.6000
vn -0.3061 0.7391 0.6000
vn -0.3061 0.7391 0.6000
vn -0.3061 0.7391 0.6000
vn -0.3061 0.7391 0.6000
vn -0.7391 0.3061 0.6000
vn -0.7391 0.3061 0.6000
vn -0.7391 0.3062 0.6000
vn -0.7391 0.3062 0.6000
vn -0.7391 -0.3061 0.6000
vn -0.7391 -0.3061 0.6000
vn -0.7391 -0.3061 0.6000
vn -0.7391 -0.3061 0.6000
vn -0.3061 -0.7391 0.6000
vn -0.3061 -0.7391 0.6000
vn -0.3061 -0.7391 0.6000
vn -0.3061 -0.7391 0.6000
vn 0.3061 -0.7391 0.6000
vn 0.3061 -0.7391 0.6000
vn 0.3061 -0.7391 0.6000
vn 0.3061 -0.7391 0.6000
vn 0.7391 -0.3061 0.6000
vn 0.7391 -0.3061 0.6000
vn 0.7391 -0.3061 0.6000
vn 0.7391 -0.3061 0.6000
# 366 vertex normals

vt 0.6747 0.4303 0.0000
vt 0.6710 0.4956 0.0000
vt 0.6576 0.4632 0.0000
vt 0.6583 0.4362 0.0000
vt 0.6222 0.4520 0.0000
vt 0.6380 0.4447 0.0000
vt 0.6695 0.4251 0.0000
vt 0.6222 0.4447 0.0000
vt 0.6964 0.3778 0.0000
vt 0.7400 0.4267 0.0000
vt 0.7076 0.4132 0.0000
vt 0.6891 0.3936 0.0000
vt 0.6806 0.4140 0.0000
vt 0.6891 0.3778 0.0000
vt 0.5697 0.4303 0.0000
vt 0.5044 0.4266 0.0000
vt 0.5368 0.4132 0.0000
vt 0.5638 0.4140 0.0000
vt 0.5480 0.3778 0.0000
vt 0.5553 0.3935 0.0000
vt 0.5749 0.4251 0.0000
vt 0.5553 0.3778 0.0000
vt 0.5734 0.4956 0.0000
vt 0.5868 0.4632 0.0000
vt 0.6064 0.4447 0.0000
vt 0.5860 0.4362 0.0000
vt 0.6748 0.3253 0.0000
vt 0.7401 0.3291 0.0000
vt 0.7077 0.3425 0.0000
vt 0.6807 0.3416 0.0000
vt 0.6891 0.3621 0.0000
vt 0.6696 0.3305 0.0000
vt 0.6222 0.3035 0.0000
vt 0.6711 0.2600 0.0000
vt 0.6577 0.2924 0.0000
vt 0.6380 0.3109 0.0000
vt 0.6584 0.3194 0.0000
vt 0.6222 0.3109 0.0000
vt 0.5697 0.3253 0.0000
vt 0.5734 0.2600 0.0000
vt 0.5868 0.2923 0.0000
vt 0.5860 0.3193 0.0000
vt 0.6065 0.3109 0.0000
vt 0.5749 0.3305 0.0000
vt 0.5044 0.3290 0.0000
vt 0.5368 0.3424 0.0000
vt 0.5553 0.3620 0.0000
vt 0.5638 0.3416 0.0000
vt 0.8243 0.1235 0.0000
vt 0.8127 0.1393 0.0000
vt 0.8139 0.0630 0.0000
vt 0.8243 0.0581 0.0000
vt 0.3493 0.8512 0.0000
vt 0.3403 0.8639 0.0000
vt 0.3403 0.8369 0.0000
vt 0.9107 0.3764 0.0000
vt 0.9107 0.3001 0.0000
vt 0.9221 0.3161 0.0000
vt 0.9211 0.3815 0.0000
vt 0.6005 0.6817 0.0000
vt 0.6005 0.6547 0.0000
vt 0.6095 0.6674 0.0000
vt 0.9147 0.6424 0.0000
vt 0.9264 0.6266 0.0000
vt 0.9252 0.7029 0.0000
vt 0.9147 0.7078 0.0000
vt 0.4947 0.8909 0.0000
vt 0.5074 0.8999 0.0000
vt 0.4804 0.8999 0.0000
vt 0.0890 0.5472 0.0000
vt 0.1653 0.5460 0.0000
vt 0.1495 0.5576 0.0000
vt 0.0841 0.5576 0.0000
vt 0.3162 0.8239 0.0000
vt 0.3162 0.7969 0.0000
vt 0.3253 0.8095 0.0000
vt 0.8441 0.1013 0.0000
vt 0.8327 0.1173 0.0000
vt 0.8327 0.0410 0.0000
vt 0.8430 0.0359 0.0000
vt 0.1912 0.6310 0.0000
vt 0.1821 0.6437 0.0000
vt 0.1821 0.6167 0.0000
vt 0.6247 0.0873 0.0000
vt 0.5484 0.0873 0.0000
vt 0.5644 0.0759 0.0000
vt 0.6298 0.0769 0.0000
vt 0.4824 0.0522 0.0000
vt 0.5094 0.0522 0.0000
vt 0.4967 0.0612 0.0000
vt 0.9267 0.0579 0.0000
vt 0.9384 0.0421 0.0000
vt 0.9372 0.1184 0.0000
vt 0.9267 0.1233 0.0000
vt 0.3102 0.6514 0.0000
vt 0.3193 0.6387 0.0000
vt 0.3193 0.6657 0.0000
vt 0.9307 0.3944 0.0000
vt 0.9307 0.3181 0.0000
vt 0.9422 0.3341 0.0000
vt 0.9411 0.3995 0.0000
vt 0.3703 0.8108 0.0000
vt 0.3973 0.8108 0.0000
vt 0.3846 0.8199 0.0000
vt 0.8847 0.1613 0.0000
vt 0.8687 0.1499 0.0000
vt 0.9450 0.1499 0.0000
vt 0.9501 0.1603 0.0000
vt 0.4590 0.5116 0.0000
vt 0.4464 0.5026 0.0000
vt 0.4734 0.5026 0.0000
vt 0.9442 0.8336 0.0000
vt 0.9442 0.9099 0.0000
vt 0.9328 0.8940 0.0000
vt 0.9338 0.8286 0.0000
vt 0.0340 0.5877 0.0000
vt 0.0340 0.5607 0.0000
vt 0.0431 0.5734 0.0000
vt 0.0754 0.0736 0.0000
vt 0.0912 0.0853 0.0000
vt 0.0149 0.0840 0.0000
vt 0.0100 0.0736 0.0000
vt 0.2605 0.2864 0.0000
vt 0.2732 0.2954 0.0000
vt 0.2462 0.2954 0.0000
vt 0.6376 0.0939 0.0000
vt 0.7139 0.0939 0.0000
vt 0.6979 0.1053 0.0000
vt 0.6325 0.1042 0.0000
vt 0.0191 0.3025 0.0000
vt 0.0191 0.3295 0.0000
vt 0.0100 0.3168 0.0000
vt 0.7246 0.0779 0.0000
vt 0.7362 0.0621 0.0000
vt 0.7350 0.1384 0.0000
vt 0.7246 0.1433 0.0000
vt 0.0583 0.6967 0.0000
vt 0.0710 0.7058 0.0000
vt 0.0440 0.7058 0.0000
vt 0.9350 0.1413 0.0000
vt 0.8587 0.1413 0.0000
vt 0.8747 0.1299 0.0000
vt 0.9401 0.1309 0.0000
vt 0.3503 0.6727 0.0000
vt 0.3773 0.6727 0.0000
vt 0.3646 0.6817 0.0000
vt 0.2896 0.0876 0.0000
vt 0.3054 0.0993 0.0000
vt 0.2291 0.0981 0.0000
vt 0.2242 0.0876 0.0000
vt 0.1204 0.6507 0.0000
vt 0.1331 0.6597 0.0000
vt 0.1061 0.6597 0.0000
vt 0.4806 0.0860 0.0000
vt 0.4043 0.0873 0.0000
vt 0.4201 0.0756 0.0000
vt 0.4855 0.0756 0.0000
vt 0.0630 0.6437 0.0000
vt 0.0360 0.6437 0.0000
vt 0.0487 0.6347 0.0000
vt 0.3156 0.0632 0.0000
vt 0.2622 0.0632 0.0000
vt 0.2582 0.0480 0.0000
vt 0.3196 0.0480 0.0000
vt 0.7258 0.0276 0.0000
vt 0.7258 0.0573 0.0000
vt 0.7106 0.0612 0.0000
vt 0.7106 0.0236 0.0000
vt 0.2981 0.3482 0.0000
vt 0.2715 0.3216 0.0000
vt 0.2794 0.3025 0.0000
vt 0.3172 0.3403 0.0000
vt 0.2339 0.3216 0.0000
vt 0.2259 0.3025 0.0000
vt 0.2073 0.3482 0.0000
vt 0.1881 0.3403 0.0000
vt 0.2073 0.3858 0.0000
vt 0.1881 0.3937 0.0000
vt 0.2339 0.4124 0.0000
vt 0.2259 0.4315 0.0000
vt 0.2715 0.4124 0.0000
vt 0.2794 0.4315 0.0000
vt 0.2981 0.3858 0.0000
vt 0.3172 0.3938 0.0000
vt 0.6719 0.0552 0.0000
vt 0.6184 0.0552 0.0000
vt 0.6145 0.0400 0.0000
vt 0.6759 0.0400 0.0000
vt 0.9468 0.0533 0.0000
vt 0.9468 0.0236 0.0000
vt 0.9620 0.0196 0.0000
vt 0.9620 0.0572 0.0000
vt 0.9468 0.1233 0.0000
vt 0.9468 0.0699 0.0000
vt 0.9620 0.0659 0.0000
vt 0.9620 0.1273 0.0000
vt 0.9860 0.0856 0.0000
vt 0.9860 0.1153 0.0000
vt 0.9708 0.1193 0.0000
vt 0.9708 0.0817 0.0000
vt 0.9581 0.2914 0.0000
vt 0.9047 0.2914 0.0000
vt 0.9007 0.2762 0.0000
vt 0.9621 0.2762 0.0000
vt 0.9860 0.0396 0.0000
vt 0.9860 0.0693 0.0000
vt 0.9708 0.0733 0.0000
vt 0.9708 0.0356 0.0000
vt 0.9087 0.1701 0.0000
vt 0.9621 0.1701 0.0000
vt 0.9661 0.1853 0.0000
vt 0.9047 0.1853 0.0000
vt 0.9728 0.7899 0.0000
vt 0.9728 0.7602 0.0000
vt 0.9880 0.7562 0.0000
vt 0.9880 0.7938 0.0000
vt 0.4203 0.0520 0.0000
vt 0.4737 0.0520 0.0000
vt 0.4777 0.0672 0.0000
vt 0.4163 0.0672 0.0000
vt 0.0437 0.0252 0.0000
vt 0.0140 0.0252 0.0000
vt 0.0100 0.0100 0.0000
vt 0.0476 0.0100 0.0000
vt 0.5524 0.0520 0.0000
vt 0.6058 0.0520 0.0000
vt 0.6098 0.0672 0.0000
vt 0.5484 0.0672 0.0000
vt 0.1321 0.0100 0.0000
vt 0.1618 0.0100 0.0000
vt 0.1657 0.0252 0.0000
vt 0.1281 0.0252 0.0000
vt 0.9640 0.5583 0.0000
vt 0.9640 0.6117 0.0000
vt 0.9488 0.6157 0.0000
vt 0.9488 0.5543 0.0000
vt 0.7806 0.0673 0.0000
vt 0.7806 0.0376 0.0000
vt 0.7958 0.0336 0.0000
vt 0.7958 0.0713 0.0000
vt 0.3084 0.7790 0.0000
vt 0.3084 0.9026 0.0000
vt 0.2210 0.6916 0.0000
vt 0.0974 0.9900 0.0000
vt 0.0100 0.9026 0.0000
vt 0.0100 0.7790 0.0000
vt 0.2210 0.9900 0.0000
vt 0.0974 0.6916 0.0000
vt 0.4158 0.1893 0.0000
vt 0.2922 0.1893 0.0000
vt 0.2862 0.1655 0.0000
vt 0.4217 0.1655 0.0000
vt 0.5745 0.2495 0.0000
vt 0.5745 0.1259 0.0000
vt 0.5983 0.1199 0.0000
vt 0.5983 0.2554 0.0000
vt 0.7826 0.9841 0.0000
vt 0.7826 0.8605 0.0000
vt 0.8065 0.8545 0.0000
vt 0.8065 0.9900 0.0000
vt 0.7826 0.8400 0.0000
vt 0.7826 0.7164 0.0000
vt 0.8065 0.7104 0.0000
vt 0.8065 0.8459 0.0000
vt 0.7986 0.5597 0.0000
vt 0.7986 0.4361 0.0000
vt 0.8225 0.4302 0.0000
vt 0.8225 0.5657 0.0000
vt 0.2716 0.1994 0.0000
vt 0.1480 0.1994 0.0000
vt 0.1421 0.1755 0.0000
vt 0.2776 0.1755 0.0000
vt 0.7986 0.4156 0.0000
vt 0.7986 0.2920 0.0000
vt 0.8225 0.2861 0.0000
vt 0.8225 0.4215 0.0000
vt 0.8225 0.1499 0.0000
vt 0.8225 0.2735 0.0000
vt 0.7986 0.2794 0.0000
vt 0.7986 0.1440 0.0000
# 280 texture coords

g KeyHole_01_03
s 1
f 1/3/1 2/4/2 3/1/3 4/2/4 
f 32/5/5 7/6/6 1/3/7 4/2/8 
f 10/7/9 3/1/10 2/4/11 
f 32/5/12 11/8/13 7/6/14 
f 12/11/15 13/12/16 37/9/17 14/10/18 
f 3/1/19 16/13/20 12/11/21 14/10/22 
f 38/14/23 37/9/24 13/12/25 
f 3/1/26 10/7/27 16/13/28 
f 19/17/29 20/18/30 21/15/31 22/16/32 
f 23/19/33 26/20/34 19/17/35 22/16/36 
f 29/21/37 21/15/38 20/18/39 
f 23/19/40 39/22/41 26/20/42 
f 30/24/43 31/25/44 32/5/45 33/23/46 
f 21/15/47 35/26/48 30/24/49 33/23/50 
f 11/8/51 32/5/52 31/25/53 
f 21/15/54 29/21/55 35/26/56 
f 40/29/57 41/30/58 42/27/59 43/28/60 
f 37/9/61 45/31/62 40/29/63 43/28/64 
f 48/32/65 42/27/66 41/30/67 
f 37/9/68 38/14/69 45/31/70 
f 49/35/71 50/36/72 51/33/73 52/34/74 
f 42/27/75 54/37/76 49/35/77 52/34/78 
f 57/38/79 51/33/80 50/36/81 
f 42/27/82 48/32/83 54/37/84 
f 58/41/85 59/42/86 60/39/87 61/40/88 
f 51/33/89 63/43/90 58/41/91 61/40/92 
f 66/44/93 60/39/94 59/42/95 
f 51/33/96 57/38/97 63/43/98 
f 67/46/99 68/47/100 23/19/101 69/45/102 
f 60/39/103 71/48/104 67/46/105 69/45/106 
f 39/22/107 23/19/108 68/47/109 
f 60/39/110 66/44/111 71/48/112 
s 2
f 6/51/113 32/52/114 4/49/115 5/50/116 
f 8/53/117 1/54/118 7/55/119 
s 4
f 4/58/120 3/59/121 9/56/122 5/57/123 
f 2/60/124 1/61/125 8/62/126 
s 2
f 9/65/127 3/66/128 14/63/129 15/64/130 
f 17/67/131 12/68/132 16/69/133 
s 4
f 14/72/134 37/73/135 18/70/136 15/71/137 
f 13/74/138 12/75/139 17/76/140 
s 2
f 25/79/141 23/80/142 22/77/143 24/78/144 
f 27/81/145 19/82/146 26/83/147 
s 4
f 22/86/148 21/87/149 28/84/150 24/85/151 
f 20/88/152 19/89/153 27/90/154 
s 2
f 28/93/155 21/94/156 33/91/157 34/92/158 
f 36/95/159 30/96/160 35/97/161 
s 4
f 33/100/162 32/101/163 6/98/164 34/99/165 
f 31/102/166 30/103/167 36/104/168 
s 2
f 18/107/169 37/108/170 43/105/171 44/106/172 
f 46/109/173 40/110/174 45/111/175 
s 4
f 43/114/176 42/115/177 47/112/178 44/113/179 
f 41/116/180 40/117/181 46/118/182 
s 2
f 47/121/183 42/122/184 52/119/185 53/120/186 
f 55/123/187 49/124/188 54/125/189 
s 4
f 52/128/190 51/129/191 56/126/192 53/127/193 
f 50/130/194 49/131/195 55/132/196 
s 2
f 56/135/197 51/136/198 61/133/199 62/134/200 
f 64/137/201 58/138/202 63/139/203 
s 4
f 61/142/204 60/143/205 65/140/206 62/141/207 
f 59/144/208 58/145/209 64/146/210 
s 2
f 65/149/211 60/150/212 69/147/213 70/148/214 
f 72/151/215 67/152/216 71/153/217 
s 4
f 69/156/218 23/157/219 25/154/220 70/155/221 
f 68/158/222 67/159/223 72/160/224 
s 1
f 76/164/225 73/161/226 74/162/227 75/163/228 
f 80/168/229 78/165/230 77/166/231 79/167/232 
s 2
f 73/172/233 80/169/234 79/170/235 74/171/236 
f 74/171/237 79/170/238 84/173/239 81/174/240 
f 81/174/241 84/173/242 88/175/243 85/176/244 
f 85/176/245 88/175/246 92/177/247 89/178/248 
f 89/178/249 92/177/250 96/179/251 93/180/252 
f 93/180/253 96/179/254 100/181/255 97/182/256 
f 97/182/257 100/181/258 104/183/259 101/184/260 
f 101/184/261 104/183/262 80/169/263 73/172/264 
s 4
f 75/188/265 74/185/266 81/186/267 82/187/268 
f 79/192/269 77/189/270 83/190/271 84/191/272 
s 1
f 82/196/273 81/193/274 85/194/275 86/195/276 
f 84/200/277 83/197/278 87/198/279 88/199/280 
s 4
f 86/204/281 85/201/282 89/202/283 90/203/284 
f 88/208/285 87/205/286 91/206/287 92/207/288 
s 1
f 90/212/289 89/209/290 93/210/291 94/211/292 
f 92/216/293 91/213/294 95/214/295 96/215/296 
s 4
f 94/220/297 93/217/298 97/218/299 98/219/300 
f 96/224/301 95/221/302 99/222/303 100/223/304 
s 1
f 98/228/305 97/225/306 101/226/307 102/227/308 
f 100/232/309 99/229/310 103/230/311 104/231/312 
s 4
f 102/236/313 101/233/314 73/234/315 76/235/316 
f 104/240/317 103/237/318 78/238/319 80/239/320 
s 1
f 119/241/321 120/242/322 118/243/323 
f 114/244/324 115/245/325 116/246/326 
f 117/248/327 113/247/328 114/244/329 116/246/330 
f 118/243/331 120/242/332 113/247/333 117/248/334 
s 2
f 106/252/335 114/249/336 113/250/337 105/251/338 
s 4
f 107/256/339 115/253/340 114/254/341 106/255/342 
s 2
f 108/260/343 116/257/344 115/258/345 107/259/346 
s 4
f 109/264/347 117/261/348 116/262/349 108/263/350 
s 2
f 110/268/351 118/265/352 117/266/353 109/267/354 
s 4
f 111/272/355 119/269/356 118/270/357 110/271/358 
s 2
f 112/276/359 120/273/360 119/274/361 111/275/362 
s 4
f 105/280/363 113/277/364 120/278/365 112/279/366 
# 66 polygons - 34 triangles

