# 3ds Max Wavefront OBJ Exporter v0.97b - (c)2007 guruware
# File Created: 16.12.2015 15:04:26

mtllib Structure_T1_05_02.mtl

#
# object Structure_T1_05_02
#

v  -55.0000 0.0000 -55.0000
v  55.0000 0.0000 -55.0000
v  55.0000 0.0000 55.0000
v  -55.0000 0.0000 55.0000
v  -55.0000 20.0000 -55.0000
v  55.0000 20.0000 -55.0000
v  55.0000 20.0000 55.0000
v  -55.0000 20.0000 55.0000
v  50.0000 20.0000 50.0000
v  50.0000 20.0000 -50.0000
v  -50.0000 20.0000 50.0000
v  -50.0000 20.0000 -50.0000
v  -40.1886 40.0000 -40.1886
v  40.1886 40.0000 -40.1886
v  40.1886 40.0000 40.1886
v  -40.1886 40.0000 40.1886
# 16 vertices

vn 0.0000 -1.0000 -0.0000
vn 0.0000 0.0000 -1.0000
vn 1.0000 0.0000 -0.0000
vn 0.0000 0.0000 1.0000
vn -1.0000 0.0000 -0.0000
vn 0.0000 1.0000 -0.0000
vn 0.0000 0.4404 -0.8978
vn 0.8978 0.4404 -0.0000
vn 0.0000 0.4404 0.8978
vn -0.8978 0.4404 -0.0000
# 10 vertex normals

vt 0.0100 0.6634 0.0000
vt 0.0100 0.3448 0.0000
vt 0.3286 0.3448 0.0000
vt 0.3286 0.6634 0.0000
vt 0.9804 0.3448 0.0000
vt 0.9804 0.6634 0.0000
vt 0.9224 0.6634 0.0000
vt 0.9224 0.3448 0.0000
vt 0.7265 0.6634 0.0000
vt 0.7265 0.3448 0.0000
vt 0.7844 0.3448 0.0000
vt 0.7844 0.6634 0.0000
vt 0.0100 0.0645 0.0000
vt 0.3286 0.0645 0.0000
vt 0.3286 0.1225 0.0000
vt 0.0100 0.1225 0.0000
vt 0.6552 0.0959 0.0000
vt 0.3366 0.0959 0.0000
vt 0.3366 0.0380 0.0000
vt 0.6552 0.0380 0.0000
vt 0.3184 0.2069 0.0000
vt 0.3039 0.1925 0.0000
vt 0.6226 0.1925 0.0000
vt 0.6081 0.2069 0.0000
vt 0.6122 0.1692 0.0000
vt 0.6267 0.1837 0.0000
vt 0.3080 0.1837 0.0000
vt 0.3225 0.1692 0.0000
vt 0.6012 0.5632 0.0000
vt 0.6012 0.2735 0.0000
vt 0.6157 0.2590 0.0000
vt 0.6157 0.5777 0.0000
vt 0.0245 0.2723 0.0000
vt 0.0100 0.2578 0.0000
vt 0.3286 0.2578 0.0000
vt 0.3141 0.2723 0.0000
vt 0.5366 0.5348 0.0000
vt 0.5366 0.3019 0.0000
vt 0.5797 0.2715 0.0000
vt 0.3468 0.2715 0.0000
vt 0.3509 0.1047 0.0000
vt 0.5838 0.1047 0.0000
vt 0.2857 0.3368 0.0000
vt 0.0529 0.3368 0.0000
vt 0.5694 0.7572 0.0000
vt 0.5694 0.9900 0.0000
vt 0.3366 0.9900 0.0000
vt 0.3366 0.7572 0.0000
# 48 texture coords

g Structure_T1_05_02
usemtl _Structure_T1_05_Structure_T1_05wire_224086086
s off
f 1/1/1 2/2/1 3/3/1 4/4/1 
f 2/5/2 1/6/2 5/7/2 6/8/2 
f 3/9/3 2/10/3 6/11/3 7/12/3 
f 4/13/4 3/14/4 7/15/4 8/16/4 
f 1/17/5 4/18/5 8/19/5 5/20/5 
f 9/21/6 7/22/6 6/23/6 10/24/6 
f 11/25/6 8/26/6 7/27/6 9/28/6 
f 12/29/6 10/30/6 6/31/6 5/32/6 
f 12/33/6 5/34/6 8/35/6 11/36/6 
f 10/30/7 12/29/7 13/37/7 14/38/7 
f 9/21/8 10/24/8 14/39/8 15/40/8 
f 11/25/9 9/28/9 15/41/9 16/42/9 
f 12/33/10 11/36/10 16/43/10 13/44/10 
f 13/45/6 16/46/6 15/47/6 14/48/6 
# 14 polygons

