# 3ds Max Wavefront OBJ Exporter v0.97b - (c)2007 guruware
# File Created: 18.12.2015 14:52:35

#
# object Plane4x4_02
#

v  -66.6667 0.0000 200.0000
v  66.6667 0.0000 200.0000
v  -66.6667 0.0000 -200.0000
v  66.6667 0.0000 -200.0000
# 4 vertices

vn 0.0000 1.0000 -0.0000
vn 0.0000 1.0000 -0.0000
vn 0.0000 1.0000 -0.0000
vn 0.0000 1.0000 -0.0000
# 4 vertex normals

vt 0.6667 0.0000 0.0000
vt 1.0000 0.0000 0.0000
vt 0.6667 1.0000 0.0000
vt 1.0000 1.0000 0.0000
# 4 texture coords

g Plane4x4_02
s 1
f 1/1/1 2/2/2 4/4/3 3/3/4 
# 1 polygons

