# 3ds Max Wavefront OBJ Exporter v0.97b - (c)2007 guruware
# File Created: 21.03.2017 21:11:30

#
# object Plane4x4_HalfBot
#

v  -200.0000 0.0000 200.0000
v  200.0000 0.0000 200.0000
v  200.0000 0.0000 -0.0000
v  -200.0000 0.0000 -0.0000
# 4 vertices

vn 0.0000 1.0000 -0.0000
vn 0.0000 1.0000 -0.0000
vn 0.0000 1.0000 -0.0000
vn 0.0000 1.0000 -0.0000
# 4 vertex normals

vt 0.0000 0.0000 0.0000
vt 1.0000 0.0000 0.0000
vt 1.0000 0.5000 0.0000
vt 0.0000 0.5000 0.0000
# 4 texture coords

g Plane4x4_HalfBot
s 1
f 2/2/1 3/3/2 4/4/3 1/1/4 
# 1 polygons

