# 3ds Max Wavefront OBJ Exporter v0.97b - (c)2007 guruware
# File Created: 18.03.2017 22:20:30

#
# object StonePlate_01_04
#

v  -81.2826 194.4108 4.6069
v  -89.7449 194.4108 4.6069
v  -91.7360 105.6436 4.6069
v  -81.2826 105.6436 6.5980
v  -81.2826 193.4537 6.5980
v  -79.2915 193.4537 4.6069
v  -91.7360 193.4537 4.6069
v  -89.7449 193.4537 6.5980
v  -89.7449 104.6866 4.6069
v  -89.7449 105.6436 6.5980
v  -81.2826 104.6866 4.6069
v  -79.2915 105.6436 4.6069
v  -91.3421 194.3137 4.6069
v  91.3421 194.3138 4.6069
v  93.3332 204.7671 4.6069
v  -93.3333 204.7671 4.6069
v  -91.3421 196.3048 6.5980
v  -93.3333 196.3048 4.6069
v  93.3332 196.3048 4.6069
v  91.3421 196.3048 6.5980
v  91.3421 206.7582 4.6069
v  91.3421 204.7671 6.5980
v  -91.3421 204.7671 6.5980
v  -91.3421 206.7581 4.6069
v  79.9470 193.4538 4.6069
v  79.9469 105.6436 4.6069
v  90.4003 104.6866 4.6069
v  90.4003 194.4108 4.6069
v  81.9381 193.4538 6.5980
v  81.9381 194.4108 4.6069
v  81.9381 104.6866 4.6069
v  81.9381 105.6436 6.5980
v  92.3914 105.6436 4.6069
v  90.4003 105.6436 6.5980
v  90.4003 193.4538 6.5980
v  92.3914 193.4538 4.6069
v  93.3332 94.1022 4.6069
v  93.3332 102.5645 4.6069
v  -91.3421 104.5556 4.6069
v  -91.3421 94.1022 6.5980
v  91.3421 94.1022 6.5980
v  91.3421 92.1111 4.6069
v  91.3421 104.5556 4.6069
v  91.3421 102.5645 6.5980
v  -93.3333 102.5645 4.6069
v  -91.3421 102.5645 6.5980
v  -93.3333 94.1022 4.6069
v  -91.3421 92.1111 4.6069
v  91.3421 103.4437 -67.8572
v  91.3421 195.7816 -67.8572
v  -91.3421 195.7814 -67.8572
v  -91.3421 103.4437 -67.8573
v  -81.2826 194.4108 -68.9880
v  -91.7359 193.4537 -68.9880
v  -79.2915 105.6436 -68.9880
v  -89.7448 104.6866 -68.9880
v  -93.3332 204.7671 -68.9880
v  91.3421 206.7582 -68.9879
v  -91.3421 194.3137 -68.9880
v  93.3333 196.3048 -68.9879
v  90.4003 194.4108 -68.9879
v  92.3914 105.6436 -68.9879
v  79.9470 193.4538 -68.9879
v  81.9381 104.6866 -68.9879
v  93.3333 94.1022 -68.9879
v  91.3421 104.5556 -68.9879
v  -91.3421 92.1111 -68.9880
v  -93.3332 102.5645 -68.9880
v  -89.7448 194.4108 -68.9880
v  -91.7359 105.6436 -68.9880
v  -79.2915 193.4537 -68.9880
v  -81.2826 104.6866 -68.9880
v  -93.3332 196.3048 -68.9880
v  -91.3421 206.7581 -68.9880
v  91.3421 194.3138 -68.9879
v  93.3333 204.7671 -68.9879
v  81.9381 194.4108 -68.9879
v  92.3914 193.4538 -68.9879
v  79.9470 105.6436 -68.9879
v  90.4003 104.6866 -68.9879
v  93.3333 102.5645 -68.9879
v  -91.3421 104.5556 -68.9880
v  91.3421 92.1111 -68.9879
v  -93.3332 94.1022 -68.9880
# 84 vertices

vn -0.0000 0.0000 1.0000
vn -0.0000 0.0000 1.0000
vn -0.0000 0.0000 1.0000
vn -0.0000 0.0000 1.0000
vn 1.0000 -0.0000 0.0000
vn 1.0000 -0.0000 0.0000
vn 1.0000 -0.0000 0.0000
vn 1.0000 -0.0000 0.0000
vn 0.0000 -1.0000 -0.0000
vn 0.0000 -1.0000 -0.0000
vn 0.0000 -1.0000 -0.0000
vn 0.0000 -1.0000 -0.0000
vn 0.5774 0.5773 0.5773
vn 0.5774 0.5773 0.5773
vn 0.5774 0.5773 0.5773
vn -0.5774 0.5773 0.5773
vn -0.5774 0.5773 0.5773
vn -0.5774 0.5773 0.5773
vn -0.5774 -0.5773 0.5773
vn -0.5774 -0.5773 0.5773
vn -0.5774 -0.5773 0.5773
vn 0.5774 -0.5773 0.5773
vn 0.5774 -0.5773 0.5773
vn 0.5774 -0.5773 0.5773
vn 0.7071 0.7071 0.0000
vn 0.7071 0.7071 0.0000
vn 0.7071 0.7071 0.0000
vn 0.7071 0.7071 0.0000
vn -0.7071 0.7071 -0.0000
vn -0.7071 0.7071 -0.0000
vn -0.7071 0.7071 -0.0000
vn -0.7071 0.7071 -0.0000
vn -0.0000 0.7071 0.7071
vn -0.0000 0.7071 0.7071
vn -0.0000 0.7071 0.7071
vn -0.0000 0.7071 0.7071
vn -0.7071 0.0000 0.7071
vn -0.7071 0.0000 0.7071
vn -0.7071 0.0000 0.7071
vn -0.7071 0.0000 0.7071
vn 0.7071 -0.0000 0.7071
vn 0.7071 -0.0000 0.7071
vn 0.7071 -0.0000 0.7071
vn 0.7071 -0.0000 0.7071
vn -0.0000 -0.7071 0.7071
vn -0.0000 -0.7071 0.7071
vn -0.0000 -0.7071 0.7071
vn -0.0000 -0.7071 0.7071
vn 0.7071 -0.7071 0.0000
vn 0.7071 -0.7071 0.0000
vn 0.7071 -0.7071 0.0000
vn 0.7071 -0.7071 0.0000
vn -1.0000 0.0000 -0.0000
vn -1.0000 0.0000 -0.0000
vn -1.0000 0.0000 -0.0000
vn -1.0000 0.0000 -0.0000
vn -0.0000 0.0000 1.0000
vn -0.0000 0.0000 1.0000
vn -0.0000 0.0000 1.0000
vn -0.0000 0.0000 1.0000
vn -0.0000 1.0000 -0.0000
vn -0.0000 1.0000 -0.0000
vn -0.0000 1.0000 -0.0000
vn -0.0000 1.0000 0.0000
vn -0.6695 -0.3218 0.6695
vn -0.6695 -0.3218 0.6695
vn -0.6695 -0.3218 0.6695
vn 0.6695 -0.3218 0.6695
vn 0.6695 -0.3218 0.6695
vn 0.6695 -0.3218 0.6695
vn 0.6695 0.3218 0.6695
vn 0.6695 0.3218 0.6695
vn 0.6695 0.3218 0.6695
vn -0.6695 0.3218 0.6695
vn -0.6695 0.3218 0.6695
vn -0.6695 0.3218 0.6695
vn -0.0000 -0.4332 0.9013
vn -0.0000 -0.4332 0.9013
vn -0.0000 -0.4332 0.9013
vn -0.0000 -0.4332 0.9013
vn 0.7071 -0.0000 0.7071
vn 0.7071 -0.0000 0.7071
vn 0.7071 -0.0000 0.7071
vn 0.7071 -0.0000 0.7071
vn -0.0000 0.4332 0.9013
vn -0.0000 0.4332 0.9013
vn -0.0000 0.4332 0.9013
vn -0.0000 0.4332 0.9013
vn -0.7071 0.0000 0.7071
vn -0.7071 0.0000 0.7071
vn -0.7071 0.0000 0.7071
vn -0.7071 0.0000 0.7071
vn 0.9013 0.4332 0.0000
vn 0.9013 0.4332 0.0000
vn 0.9013 0.4332 0.0000
vn 0.9013 0.4332 0.0000
vn -0.0000 1.0000 0.0000
vn -0.0000 1.0000 0.0000
vn -0.0000 1.0000 0.0000
vn -0.0000 1.0000 0.0000
vn -0.0000 0.0000 1.0000
vn -0.0000 0.0000 1.0000
vn -0.0000 0.0000 1.0000
vn -0.0000 0.0000 1.0000
vn 1.0000 -0.0000 0.0000
vn 1.0000 -0.0000 0.0000
vn 1.0000 -0.0000 0.0000
vn 1.0000 -0.0000 0.0000
vn -0.5774 0.5774 0.5773
vn -0.5774 0.5774 0.5773
vn -0.5774 0.5774 0.5773
vn -0.5773 -0.5774 0.5773
vn -0.5773 -0.5774 0.5773
vn -0.5773 -0.5774 0.5773
vn 0.5774 -0.5774 0.5773
vn 0.5774 -0.5774 0.5773
vn 0.5774 -0.5774 0.5773
vn 0.5773 0.5774 0.5773
vn 0.5773 0.5774 0.5773
vn 0.5773 0.5774 0.5773
vn -0.7071 0.0000 0.7071
vn -0.7071 0.0000 0.7071
vn -0.7071 0.0000 0.7071
vn -0.7071 0.0000 0.7071
vn -0.0000 -0.7071 0.7071
vn -0.0000 -0.7071 0.7071
vn -0.0000 -0.7071 0.7071
vn -0.0000 -0.7071 0.7071
vn 0.7071 0.0000 0.7071
vn 0.7071 -0.0000 0.7071
vn 0.7071 -0.0000 0.7071
vn 0.7071 0.0000 0.7071
vn -0.0000 0.7071 0.7071
vn -0.0000 0.7071 0.7071
vn -0.0000 0.7071 0.7071
vn -0.0000 0.7071 0.7071
vn 0.7071 -0.7071 0.0000
vn 0.7071 -0.7071 0.0000
vn 0.7071 -0.7071 0.0000
vn 0.7071 -0.7071 0.0000
vn 0.0000 0.0000 1.0000
vn 0.0000 0.0000 1.0000
vn 0.0000 0.0000 1.0000
vn 0.0000 0.0000 1.0000
vn 0.0000 -1.0000 -0.0000
vn 0.0000 -1.0000 -0.0000
vn 0.0000 -1.0000 -0.0000
vn 0.0000 -1.0000 -0.0000
vn -1.0000 0.0000 -0.0000
vn -1.0000 0.0000 -0.0000
vn -1.0000 0.0000 -0.0000
vn -1.0000 0.0000 -0.0000
vn 0.6695 -0.3218 0.6695
vn 0.6695 -0.3218 0.6695
vn 0.6695 -0.3218 0.6695
vn 0.6695 0.3218 0.6695
vn 0.6695 0.3218 0.6695
vn 0.6695 0.3218 0.6695
vn -0.6695 0.3218 0.6695
vn -0.6695 0.3218 0.6695
vn -0.6695 0.3218 0.6695
vn -0.6695 -0.3218 0.6695
vn -0.6695 -0.3218 0.6695
vn -0.6695 -0.3218 0.6695
vn 0.9013 -0.4332 0.0000
vn 0.9013 -0.4332 0.0000
vn 0.9013 -0.4332 0.0000
vn 0.9013 -0.4332 0.0000
vn 0.9013 0.4332 -0.0000
vn 0.9013 0.4332 -0.0000
vn 0.9013 0.4332 0.0000
vn 0.9013 0.4332 0.0000
vn 0.7071 -0.0000 0.7071
vn 0.7071 -0.0000 0.7071
vn 0.7071 -0.0000 0.7071
vn 0.7071 -0.0000 0.7071
vn 0.0000 0.4332 0.9013
vn -0.0000 0.4332 0.9013
vn -0.0000 0.4332 0.9013
vn 0.0000 0.4332 0.9013
vn 0.0000 -0.4332 0.9013
vn 0.0000 -0.4332 0.9013
vn 0.0000 -0.4332 0.9013
vn 0.0000 -0.4332 0.9013
vn -0.7071 0.0000 0.7071
vn -0.7071 0.0000 0.7071
vn -0.7071 0.0000 0.7071
vn -0.7071 0.0000 0.7071
vn -0.9013 -0.4332 -0.0000
vn -0.9013 -0.4332 -0.0000
vn -0.9013 -0.4332 -0.0000
vn -0.9013 -0.4332 -0.0000
vn -0.0000 -0.0000 1.0000
vn -0.0000 -0.0000 1.0000
vn -0.0000 -0.0000 1.0000
vn -0.0000 -0.0000 1.0000
vn -0.0000 1.0000 0.0000
vn -0.0000 1.0000 0.0000
vn -0.0000 1.0000 0.0000
vn -0.0000 1.0000 0.0000
vn -1.0000 0.0000 -0.0000
vn -1.0000 0.0000 -0.0000
vn -1.0000 0.0000 -0.0000
vn -1.0000 0.0000 -0.0000
vn -0.7071 -0.7071 0.0000
vn -0.7071 -0.7071 0.0000
vn -0.7071 -0.7071 -0.0000
vn -0.7071 -0.7071 -0.0000
vn 0.0000 -1.0000 -0.0000
vn 0.0000 -1.0000 -0.0000
vn 0.0000 -1.0000 -0.0000
vn 0.0000 -1.0000 -0.0000
vn 1.0000 -0.0000 0.0000
vn 1.0000 -0.0000 0.0000
vn 1.0000 -0.0000 0.0000
vn 1.0000 -0.0000 0.0000
vn -0.9013 -0.4332 -0.0000
vn -0.9013 -0.4332 -0.0000
vn -0.9013 -0.4332 -0.0000
vn -0.9013 -0.4332 -0.0000
vn -0.9013 0.4332 -0.0000
vn -0.9013 0.4332 -0.0000
vn -0.9013 0.4332 -0.0000
vn -0.9013 0.4332 -0.0000
vn 0.9013 -0.4332 0.0000
vn 0.9013 -0.4332 0.0000
vn 0.9013 -0.4332 0.0000
vn 0.9013 -0.4332 0.0000
vn -1.0000 0.0000 -0.0000
vn -1.0000 0.0000 -0.0000
vn -1.0000 0.0000 -0.0000
vn -1.0000 0.0000 -0.0000
vn 0.0000 -1.0000 -0.0000
vn 0.0000 -1.0000 -0.0000
vn 0.0000 -1.0000 -0.0000
vn 0.0000 -1.0000 -0.0000
vn -0.7071 0.7071 -0.0000
vn -0.7071 0.7071 -0.0000
vn -0.7071 0.7071 -0.0000
vn -0.7071 0.7071 -0.0000
vn 0.7071 0.7071 0.0000
vn 0.7071 0.7071 0.0000
vn 0.7071 0.7071 0.0000
vn 0.7071 0.7071 0.0000
vn -0.7071 -0.7071 -0.0000
vn -0.7071 -0.7071 -0.0000
vn -0.7071 -0.7071 -0.0000
vn -0.7071 -0.7071 -0.0000
vn 1.0000 -0.0000 0.0000
vn 1.0000 -0.0000 0.0000
vn 1.0000 -0.0000 0.0000
vn 1.0000 -0.0000 0.0000
vn -0.0000 1.0000 -0.0000
vn -0.0000 1.0000 -0.0000
vn -0.0000 1.0000 -0.0000
vn -0.0000 1.0000 0.0000
vn -0.9013 0.4332 -0.0000
vn -0.9013 0.4332 -0.0000
vn -0.9013 0.4332 -0.0000
vn -0.9013 0.4332 -0.0000
# 260 vertex normals

vt 0.2767 0.4925 0.0000
vt 0.2767 0.4820 0.0000
vt 0.2767 0.4960 0.0000
vt 0.2767 0.7233 0.0000
vt 0.2627 0.4960 0.0000
vt 0.2732 0.4960 0.0000
vt 0.2732 0.7233 0.0000
vt 0.2627 0.7233 0.0000
vt 0.9865 0.2652 0.0000
vt 0.9865 0.4924 0.0000
vt 0.2767 0.7373 0.0000
vt 0.2767 0.7268 0.0000
vt 0.9882 0.2621 0.0000
vt 0.9900 0.2652 0.0000
vt 0.2750 0.4930 0.0000
vt 0.2737 0.7250 0.0000
vt 0.9895 0.4942 0.0000
vt 0.9865 0.4959 0.0000
vt 0.9865 0.2617 0.0000
vt 0.2627 0.4925 0.0000
vt 0.2732 0.4925 0.0000
vt 0.9900 0.4924 0.0000
vt 0.2732 0.7268 0.0000
vt 0.2732 0.7373 0.0000
vt 0.7591 0.9760 0.0000
vt 0.7486 0.9760 0.0000
vt 0.7486 0.7487 0.0000
vt 0.7591 0.7487 0.0000
vt 0.9865 0.7361 0.0000
vt 0.9865 0.5088 0.0000
vt 0.7451 0.7347 0.0000
vt 0.7451 0.7452 0.0000
vt 0.7451 0.7487 0.0000
vt 0.7451 0.9760 0.0000
vt 0.7451 0.9795 0.0000
vt 0.7451 0.9900 0.0000
vt 0.9895 0.7378 0.0000
vt 0.9865 0.7396 0.0000
vt 0.9882 0.5058 0.0000
vt 0.9900 0.5088 0.0000
vt 0.7469 0.9790 0.0000
vt 0.7481 0.7470 0.0000
vt 0.9900 0.7361 0.0000
vt 0.7591 0.9795 0.0000
vt 0.7486 0.9795 0.0000
vt 0.7486 0.7347 0.0000
vt 0.7486 0.7452 0.0000
vt 0.9865 0.5053 0.0000
vt 0.7591 0.9760 0.0000
vt 0.7486 0.9760 0.0000
vt 0.7486 0.7487 0.0000
vt 0.7591 0.7487 0.0000
vt 0.9865 0.7361 0.0000
vt 0.9865 0.5088 0.0000
vt 0.7451 0.7347 0.0000
vt 0.7451 0.7452 0.0000
vt 0.7451 0.7487 0.0000
vt 0.7451 0.9760 0.0000
vt 0.7451 0.9795 0.0000
vt 0.7451 0.9900 0.0000
vt 0.9895 0.7378 0.0000
vt 0.9865 0.7396 0.0000
vt 0.9882 0.5058 0.0000
vt 0.9900 0.5088 0.0000
vt 0.7469 0.9790 0.0000
vt 0.7481 0.7470 0.0000
vt 0.9900 0.7361 0.0000
vt 0.7591 0.9795 0.0000
vt 0.7486 0.9795 0.0000
vt 0.7486 0.7347 0.0000
vt 0.7486 0.7452 0.0000
vt 0.9865 0.5053 0.0000
vt 0.2767 0.4925 0.0000
vt 0.2767 0.4820 0.0000
vt 0.2767 0.4960 0.0000
vt 0.2767 0.7233 0.0000
vt 0.2627 0.4960 0.0000
vt 0.2732 0.4960 0.0000
vt 0.2732 0.7233 0.0000
vt 0.2627 0.7233 0.0000
vt 0.9865 0.2652 0.0000
vt 0.9865 0.4924 0.0000
vt 0.2767 0.7373 0.0000
vt 0.2767 0.7268 0.0000
vt 0.9882 0.2621 0.0000
vt 0.9900 0.2652 0.0000
vt 0.2750 0.4930 0.0000
vt 0.2737 0.7250 0.0000
vt 0.9895 0.4942 0.0000
vt 0.9865 0.4959 0.0000
vt 0.9865 0.2617 0.0000
vt 0.2627 0.4925 0.0000
vt 0.2732 0.4925 0.0000
vt 0.9900 0.4924 0.0000
vt 0.2732 0.7268 0.0000
vt 0.2732 0.7373 0.0000
vt 0.7451 0.9760 0.0000
vt 0.6302 0.9760 0.0000
vt 0.6302 0.7487 0.0000
vt 0.7451 0.7487 0.0000
vt 0.3683 0.4820 0.0000
vt 0.8949 0.2617 0.0000
vt 0.3683 0.4960 0.0000
vt 0.8949 0.4924 0.0000
vt 0.3683 0.7268 0.0000
vt 0.6535 0.7452 0.0000
vt 0.6535 0.9760 0.0000
vt 0.8949 0.7361 0.0000
vt 0.6535 0.9900 0.0000
vt 0.8949 0.5053 0.0000
vt 0.6535 0.7452 0.0000
vt 0.6535 0.9760 0.0000
vt 0.8949 0.7361 0.0000
vt 0.6535 0.9900 0.0000
vt 0.8949 0.5053 0.0000
vt 0.3683 0.4820 0.0000
vt 0.8949 0.2617 0.0000
vt 0.3683 0.4960 0.0000
vt 0.8949 0.4924 0.0000
vt 0.3683 0.7268 0.0000
vt 0.3683 0.4925 0.0000
vt 0.3683 0.7233 0.0000
vt 0.8949 0.2652 0.0000
vt 0.3683 0.7373 0.0000
vt 0.8949 0.4959 0.0000
vt 0.6535 0.7347 0.0000
vt 0.8949 0.7396 0.0000
vt 0.6535 0.7487 0.0000
vt 0.8949 0.5088 0.0000
vt 0.6535 0.9795 0.0000
vt 0.6535 0.7347 0.0000
vt 0.8949 0.7396 0.0000
vt 0.6535 0.7487 0.0000
vt 0.8949 0.5088 0.0000
vt 0.6535 0.9795 0.0000
vt 0.3683 0.4925 0.0000
vt 0.3683 0.7233 0.0000
vt 0.8949 0.2652 0.0000
vt 0.3683 0.7373 0.0000
vt 0.8949 0.4959 0.0000
# 140 texture coords

g StonePlate_01_04
s 1
f 4/8/1 5/5/2 8/6/3 10/7/4 
f 55/104/5 71/123/6 6/9/7 12/10/8 
f 56/105/9 72/124/10 11/11/11 9/12/12 
s 2
f 1/13/13 5/14/14 6/9/15 
f 2/15/16 7/3/17 8/6/18 
f 3/4/19 9/12/20 10/16/21 
f 4/17/22 11/18/23 12/10/24 
s 4
f 71/123/25 53/102/26 1/19/27 6/9/28 
f 69/121/29 54/103/30 7/3/31 2/1/32 
s 8
f 8/6/33 5/5/34 1/20/35 2/21/36 
s 16
f 7/3/37 3/4/38 10/7/39 8/6/40 
f 5/14/41 4/22/42 12/10/43 6/9/44 
s 4
f 4/24/45 10/23/46 9/12/47 11/11/48 
s 32
f 72/125/49 55/104/50 12/10/51 11/18/52 
s 1
f 57/106/53 73/126/54 18/31/55 16/32/56 
f 17/28/57 20/25/58 22/26/59 23/27/60 
f 58/107/61 74/128/62 24/33/63 21/34/64 
s 2
f 13/29/65 17/37/66 18/38/67 
f 14/30/68 19/39/69 20/40/70 
f 15/41/71 21/34/72 22/26/73 
f 16/32/74 23/42/75 24/33/76 
s 8
f 20/40/77 17/43/78 13/29/79 14/30/80 
s 4
f 22/26/81 20/25/82 19/44/83 15/45/84 
s 8
f 21/34/85 24/33/86 23/27/87 22/26/88 
s 16
f 16/32/89 18/31/90 17/46/91 23/47/92 
s 32
f 76/130/93 58/107/94 21/34/95 15/35/96 
s 1
f 61/111/97 77/131/98 30/55/99 28/56/100 
f 29/52/101 32/49/102 34/50/103 35/51/104 
f 62/112/105 78/133/106 36/57/107 33/58/108 
s 2
f 25/53/109 29/61/110 30/62/111 
f 26/54/112 31/63/113 32/64/114 
f 27/65/115 33/58/116 34/50/117 
f 28/56/118 35/66/119 36/57/120 
s 8
f 32/64/121 29/67/122 25/53/123 26/54/124 
s 4
f 34/50/125 32/49/126 31/68/127 27/69/128 
s 8
f 33/58/129 36/57/130 35/51/131 34/50/132 
s 16
f 28/56/133 30/55/134 29/70/135 35/71/136 
s 32
f 80/135/137 62/112/138 33/58/139 27/59/140 
s 1
f 40/80/141 41/77/142 44/78/143 46/79/144 
f 67/119/145 83/138/146 42/81/147 48/82/148 
f 68/120/149 84/139/150 47/83/151 45/84/152 
s 2
f 37/85/153 41/86/154 42/81/155 
f 38/87/156 43/75/157 44/78/158 
f 39/76/159 45/84/160 46/88/161 
f 40/89/162 47/90/163 48/82/164 
s 4
f 83/138/165 65/117/166 37/91/167 42/81/168 
f 81/136/169 66/118/170 43/75/171 38/73/172 
s 8
f 44/78/173 41/77/174 37/92/175 38/93/176 
s 16
f 43/75/177 39/76/178 46/79/179 44/78/180 
f 41/86/181 40/94/182 48/82/183 42/81/184 
s 4
f 40/96/185 46/95/186 45/84/187 47/83/188 
s 32
f 84/140/189 67/119/190 48/82/191 47/90/192 
s 1
f 50/98/193 51/99/194 52/100/195 49/97/196 
f 2/1/197 1/2/198 53/101/199 69/121/200 
f 3/4/201 7/3/202 54/103/203 70/122/204 
s 32
f 9/12/205 3/4/206 70/122/207 56/105/208 
s 1
f 14/30/209 13/29/210 59/108/211 75/129/212 
f 15/35/213 19/36/214 60/109/215 76/130/216 
s 4
f 13/29/217 18/38/218 73/127/219 59/108/220 
f 16/32/221 24/33/222 74/128/223 57/106/224 
s 32
f 19/48/225 14/30/226 75/129/227 60/110/228 
s 1
f 26/54/229 25/53/230 63/113/231 79/134/232 
f 27/59/233 31/60/234 64/114/235 80/135/236 
s 4
f 25/53/237 30/62/238 77/132/239 63/113/240 
f 28/56/241 36/57/242 78/133/243 61/111/244 
s 32
f 31/72/245 26/54/246 79/134/247 64/115/248 
s 1
f 38/73/249 37/74/250 65/116/251 81/136/252 
f 39/76/253 43/75/254 66/118/255 82/137/256 
s 32
f 45/84/257 39/76/258 82/137/259 68/120/260 
# 53 polygons - 16 triangles

