# 3ds Max Wavefront OBJ Exporter v0.97b - (c)2007 guruware
# File Created: 16.12.2015 00:05:00

mtllib Structure_T1_03.mtl

#
# object Structure_T1_03
#

v  200.0000 295.1356 12.5000
v  200.0000 315.1356 12.5000
v  -200.0000 315.1356 12.5000
v  -200.0000 295.1356 12.5000
v  -200.0000 295.1356 -0.0000
v  200.0000 295.1356 -0.0000
v  200.0000 315.1356 7.4807
v  -200.0000 315.1356 7.4807
v  200.0000 370.0001 7.4807
v  -200.0000 370.0001 7.4807
v  200.0000 370.0001 25.0000
v  -200.0000 370.0001 25.0000
v  200.0000 400.0001 25.0000
v  -200.0000 400.0001 25.0000
v  -200.0000 400.0001 -0.0000
v  200.0000 400.0001 -0.0000
v  150.0000 320.1356 15.0000
v  190.0000 320.1356 15.0000
v  190.0000 370.0001 15.0000
v  150.0000 370.0001 15.0000
v  190.0000 320.1356 7.4807
v  190.0000 370.0001 7.4807
v  -190.0000 320.1356 15.0000
v  -150.0000 320.1356 15.0000
v  -150.0000 370.0001 15.0000
v  -190.0000 370.0001 15.0000
v  -150.0000 320.1356 7.4807
v  -150.0000 370.0001 7.4807
v  150.0000 320.1356 7.4807
v  150.0000 370.0001 7.4807
v  -190.0000 320.1356 7.4807
v  -190.0000 370.0001 7.4807
v  200.0000 290.1356 25.0000
v  140.0000 290.1356 25.0000
v  140.0000 290.1356 -0.0000
v  200.0000 290.1356 -0.0000
v  140.0000 320.1356 -0.0000
v  140.0000 320.1356 25.0000
v  200.0000 320.1356 25.0000
v  200.0000 320.1356 -0.0000
v  -140.0000 290.1356 25.0000
v  -200.0000 290.1356 25.0000
v  -200.0000 290.1356 -0.0000
v  -140.0000 290.1356 -0.0000
v  -200.0000 320.1356 -0.0000
v  -200.0000 320.1356 25.0000
v  -140.0000 320.1356 25.0000
v  -140.0000 320.1356 -0.0000
v  180.0000 280.1356 10.0000
v  160.0000 280.1356 10.0000
v  160.0000 50.1356 10.0000
v  180.0000 50.1356 10.0000
v  190.0000 290.1356 -0.0000
v  190.0000 290.1356 15.0000
v  190.0000 40.1356 15.0000
v  190.0000 40.1356 -0.0000
v  160.0000 50.1356 15.0000
v  150.0000 40.1356 15.0000
v  180.0000 50.1356 15.0000
v  180.0000 280.1356 15.0000
v  150.0000 290.1356 15.0000
v  160.0000 280.1356 15.0000
v  -160.0000 280.1356 10.0000
v  -180.0000 280.1356 10.0000
v  -180.0000 50.1356 10.0000
v  -160.0000 50.1356 10.0000
v  -150.0000 290.1356 -0.0000
v  -150.0000 290.1356 15.0000
v  -150.0000 40.1356 15.0000
v  -150.0000 40.1356 -0.0000
v  -180.0000 50.1356 15.0000
v  -190.0000 40.1356 15.0000
v  -160.0000 50.1356 15.0000
v  -160.0000 280.1356 15.0000
v  -190.0000 290.1356 15.0000
v  -180.0000 280.1356 15.0000
v  150.0000 290.1356 -0.0000
v  150.0000 40.1356 -0.0000
v  -190.0000 290.1356 -0.0000
v  -190.0000 40.1356 -0.0000
v  200.0000 0.1356 25.0000
v  200.0000 30.1356 25.0000
v  -200.0000 30.1356 25.0000
v  -200.0000 0.1356 25.0000
v  200.0000 30.1356 22.4751
v  -200.0000 30.1356 22.4751
v  200.0000 40.1356 22.4751
v  -200.0000 40.1356 22.4751
v  200.0000 40.1356 3.7727
v  -200.0000 40.1356 3.7727
v  200.0000 60.1356 3.7727
v  -200.0000 60.1356 3.7727
v  -200.0000 60.1356 -0.0000
v  200.0000 60.1356 -0.0000
# 94 vertices

vn 0.0000 0.0000 1.0000
vn 0.0000 -1.0000 -0.0000
vn 0.0000 1.0000 -0.0000
vn 1.0000 0.0000 -0.0000
vn -1.0000 0.0000 -0.0000
# 5 vertex normals

vt 0.7845 0.5654 0.0000
vt 0.7845 0.6042 0.0000
vt 0.0100 0.6042 0.0000
vt 0.0100 0.5654 0.0000
vt 0.0100 0.6699 0.0000
vt 0.7845 0.6699 0.0000
vt 0.7845 0.6941 0.0000
vt 0.0100 0.6941 0.0000
vt 0.0100 0.2370 0.0000
vt 0.7845 0.2370 0.0000
vt 0.7845 0.2467 0.0000
vt 0.0100 0.2467 0.0000
vt 0.0100 0.8838 0.0000
vt 0.7845 0.8838 0.0000
vt 0.7845 0.9900 0.0000
vt 0.0100 0.9900 0.0000
vt 0.0100 0.7028 0.0000
vt 0.7845 0.7028 0.0000
vt 0.7845 0.7367 0.0000
vt 0.0100 0.7367 0.0000
vt 0.0100 0.8159 0.0000
vt 0.7845 0.8159 0.0000
vt 0.7845 0.8740 0.0000
vt 0.0100 0.8740 0.0000
vt 0.0100 0.6610 0.0000
vt 0.0100 0.6126 0.0000
vt 0.7845 0.6126 0.0000
vt 0.7845 0.6610 0.0000
vt 0.1066 0.2900 0.0000
vt 0.1066 0.3674 0.0000
vt 0.0100 0.3674 0.0000
vt 0.0100 0.2900 0.0000
vt 0.4981 0.4057 0.0000
vt 0.4981 0.3911 0.0000
vt 0.5947 0.3911 0.0000
vt 0.5947 0.4057 0.0000
vt 0.6900 0.0389 0.0000
vt 0.7675 0.0389 0.0000
vt 0.7675 0.1355 0.0000
vt 0.6900 0.1355 0.0000
vt 0.2037 0.3395 0.0000
vt 0.2183 0.3395 0.0000
vt 0.2183 0.4361 0.0000
vt 0.2037 0.4361 0.0000
vt 0.3816 0.3911 0.0000
vt 0.3816 0.4057 0.0000
vt 0.2851 0.4057 0.0000
vt 0.2851 0.3911 0.0000
vt 0.4882 0.3911 0.0000
vt 0.4882 0.4057 0.0000
vt 0.3916 0.4057 0.0000
vt 0.3916 0.3911 0.0000
vt 0.9450 0.8101 0.0000
vt 0.9450 0.9263 0.0000
vt 0.8966 0.9263 0.0000
vt 0.8966 0.8101 0.0000
vt 0.1875 0.0692 0.0000
vt 0.1875 0.1176 0.0000
vt 0.0714 0.1176 0.0000
vt 0.0714 0.0692 0.0000
vt 0.0100 0.4350 0.0000
vt 0.0100 0.3769 0.0000
vt 0.1262 0.3769 0.0000
vt 0.1262 0.4350 0.0000
vt 0.0100 0.2112 0.0000
vt 0.0100 0.1531 0.0000
vt 0.0584 0.1531 0.0000
vt 0.0584 0.2112 0.0000
vt 0.8966 0.8008 0.0000
vt 0.8966 0.6846 0.0000
vt 0.9450 0.6846 0.0000
vt 0.9450 0.8008 0.0000
vt 0.0714 0.2123 0.0000
vt 0.0714 0.1639 0.0000
vt 0.1875 0.1639 0.0000
vt 0.1875 0.2123 0.0000
vt 0.1365 0.3201 0.0000
vt 0.1946 0.3201 0.0000
vt 0.1946 0.4363 0.0000
vt 0.1365 0.4363 0.0000
vt 0.0584 0.0584 0.0000
vt 0.0584 0.1165 0.0000
vt 0.0100 0.1165 0.0000
vt 0.0100 0.0584 0.0000
vt 0.8305 0.5446 0.0000
vt 0.8693 0.5446 0.0000
vt 0.8693 0.9900 0.0000
vt 0.8305 0.9900 0.0000
vt 0.7367 0.1449 0.0000
vt 0.7367 0.1740 0.0000
vt 0.2526 0.1740 0.0000
vt 0.2526 0.1449 0.0000
vt 0.2720 0.4161 0.0000
vt 0.2526 0.4354 0.0000
vt 0.2526 0.3580 0.0000
vt 0.2720 0.3773 0.0000
vt 0.7367 0.3580 0.0000
vt 0.7174 0.3773 0.0000
vt 0.7367 0.4354 0.0000
vt 0.7173 0.4161 0.0000
vt 0.6420 0.3958 0.0000
vt 0.6420 0.4055 0.0000
vt 0.6033 0.4055 0.0000
vt 0.6033 0.3958 0.0000
vt 0.8882 0.5446 0.0000
vt 0.8882 0.9900 0.0000
vt 0.8785 0.9900 0.0000
vt 0.8785 0.5446 0.0000
vt 0.1165 0.3296 0.0000
vt 0.1262 0.3296 0.0000
vt 0.1262 0.3683 0.0000
vt 0.1165 0.3683 0.0000
vt 0.4554 0.1260 0.0000
vt 0.4554 0.1357 0.0000
vt 0.0100 0.1357 0.0000
vt 0.0100 0.1260 0.0000
vt 0.8305 0.0901 0.0000
vt 0.8693 0.0901 0.0000
vt 0.8693 0.5355 0.0000
vt 0.8305 0.5355 0.0000
vt 0.8219 0.4941 0.0000
vt 0.7929 0.4941 0.0000
vt 0.7929 0.0100 0.0000
vt 0.8219 0.0100 0.0000
vt 0.2720 0.3285 0.0000
vt 0.2526 0.3478 0.0000
vt 0.2526 0.2704 0.0000
vt 0.2720 0.2898 0.0000
vt 0.7367 0.2704 0.0000
vt 0.7174 0.2898 0.0000
vt 0.7367 0.3478 0.0000
vt 0.7173 0.3285 0.0000
vt 0.2278 0.3982 0.0000
vt 0.2375 0.3982 0.0000
vt 0.2375 0.4369 0.0000
vt 0.2278 0.4369 0.0000
vt 0.8882 0.0905 0.0000
vt 0.8882 0.5358 0.0000
vt 0.8785 0.5358 0.0000
vt 0.8785 0.0905 0.0000
vt 0.2278 0.3509 0.0000
vt 0.2375 0.3509 0.0000
vt 0.2375 0.3896 0.0000
vt 0.2278 0.3896 0.0000
vt 0.6799 0.1071 0.0000
vt 0.6799 0.1167 0.0000
vt 0.2345 0.1167 0.0000
vt 0.2345 0.1071 0.0000
vt 0.7367 0.2118 0.0000
vt 0.2526 0.2118 0.0000
vt 0.2526 0.1828 0.0000
vt 0.7367 0.1828 0.0000
vt 0.7929 0.9900 0.0000
vt 0.7929 0.5059 0.0000
vt 0.8219 0.5059 0.0000
vt 0.8219 0.9900 0.0000
vt 0.7845 0.7473 0.0000
vt 0.7845 0.8054 0.0000
vt 0.0100 0.8054 0.0000
vt 0.0100 0.7473 0.0000
vt 0.0100 0.2560 0.0000
vt 0.7845 0.2560 0.0000
vt 0.7845 0.2609 0.0000
vt 0.0100 0.2609 0.0000
vt 0.0100 0.5374 0.0000
vt 0.7845 0.5374 0.0000
vt 0.7845 0.5568 0.0000
vt 0.0100 0.5568 0.0000
vt 0.0100 0.4922 0.0000
vt 0.7845 0.4922 0.0000
vt 0.7845 0.5284 0.0000
vt 0.0100 0.5284 0.0000
vt 0.0100 0.4447 0.0000
vt 0.7845 0.4447 0.0000
vt 0.7845 0.4834 0.0000
vt 0.0100 0.4834 0.0000
vt 0.7845 0.2205 0.0000
vt 0.7845 0.2278 0.0000
vt 0.0100 0.2278 0.0000
vt 0.0100 0.2205 0.0000
# 180 texture coords

g Structure_T1_03
usemtl _Structure_T1_03wire_228153184
s 1
f 1/1/1 2/2/1 3/3/1 4/4/1 
f 1/5/2 4/6/2 5/7/2 6/8/2 
f 3/9/3 2/10/3 7/11/3 8/12/3 
f 8/13/1 7/14/1 9/15/1 10/16/1 
f 10/17/2 9/18/2 11/19/2 12/20/2 
f 12/21/1 11/22/1 13/23/1 14/24/1 
f 15/25/3 14/26/3 13/27/3 16/28/3 
f 17/29/1 18/30/1 19/31/1 20/32/1 
f 18/33/4 21/34/4 22/35/4 19/36/4 
f 23/37/1 24/38/1 25/39/1 26/40/1 
f 24/41/4 27/42/4 28/43/4 25/44/4 
f 29/45/5 17/46/5 20/47/5 30/48/5 
f 31/49/5 23/50/5 26/51/5 32/52/5 
f 33/53/2 34/54/2 35/55/2 36/56/2 
f 37/57/3 38/58/3 39/59/3 40/60/3 
f 38/61/1 34/62/1 33/63/1 39/64/1 
f 37/65/5 35/66/5 34/67/5 38/68/5 
f 41/69/2 42/70/2 43/71/2 44/72/2 
f 45/73/3 46/74/3 47/75/3 48/76/3 
f 46/77/1 42/78/1 41/79/1 47/80/1 
f 47/81/4 41/82/4 44/83/4 48/84/4 
f 49/85/1 50/86/1 51/87/1 52/88/1 
f 53/89/4 54/90/4 55/91/4 56/92/4 
f 57/93/1 58/94/1 55/95/1 59/96/1 
f 54/97/1 60/98/1 59/96/1 55/95/1 
f 60/98/1 54/97/1 61/99/1 62/100/1 
f 58/94/1 57/93/1 62/100/1 61/99/1 
f 51/101/3 57/102/3 59/103/3 52/104/3 
f 59/105/5 60/106/5 49/107/5 52/108/5 
f 49/109/2 60/110/2 62/111/2 50/112/2 
f 50/113/4 62/114/4 57/115/4 51/116/4 
f 63/117/1 64/118/1 65/119/1 66/120/1 
f 67/121/4 68/122/4 69/123/4 70/124/4 
f 71/125/1 72/126/1 69/127/1 73/128/1 
f 68/129/1 74/130/1 73/128/1 69/127/1 
f 74/130/1 68/129/1 75/131/1 76/132/1 
f 72/126/1 71/125/1 76/132/1 75/131/1 
f 65/133/3 71/134/3 73/135/3 66/136/3 
f 73/137/5 74/138/5 63/139/5 66/140/5 
f 63/141/2 74/142/2 76/143/2 64/144/2 
f 64/145/4 76/146/4 71/147/4 65/148/4 
f 77/149/5 78/150/5 58/151/5 61/152/5 
f 79/153/5 80/154/5 72/155/5 75/156/5 
f 81/157/1 82/158/1 83/159/1 84/160/1 
f 83/161/3 82/162/3 85/163/3 86/164/3 
f 86/165/1 85/166/1 87/167/1 88/168/1 
f 88/169/3 87/170/3 89/171/3 90/172/3 
f 90/173/1 89/174/1 91/175/1 92/176/1 
f 93/177/3 92/178/3 91/179/3 94/180/3 
# 49 polygons

