# 3ds Max Wavefront OBJ Exporter v0.97b - (c)2007 guruware
# File Created: 18.12.2015 18:13:58

#
# object Structure_T1_02_02
#

v  -50.0000 0.0000 -0.0001
v  -50.0000 0.0000 49.9999
v  -50.0000 690.0000 50.0000
v  -50.0000 690.0000 -0.0000
v  -150.0000 690.0000 -0.0000
v  -150.0000 690.0000 50.0000
v  -150.0000 0.0000 49.9999
v  -150.0000 0.0000 -0.0001
v  50.0000 690.0000 -0.0000
v  50.0000 690.0000 50.0000
v  50.0000 0.0000 49.9999
v  50.0000 0.0000 -0.0001
v  -200.0000 0.0000 49.9999
v  -200.0000 690.0000 50.0000
v  -200.0000 0.0000 -0.0001
v  -200.0000 690.0000 -0.0000
v  50.0000 670.0000 35.0000
v  50.0000 670.0000 -0.0000
v  150.0000 670.0000 -0.0000
v  150.0000 670.0000 35.0000
v  50.0000 690.0000 35.0000
v  150.0000 690.0000 35.0000
v  -150.0000 670.0000 35.0000
v  -150.0000 670.0000 -0.0000
v  -50.0000 670.0000 -0.0000
v  -50.0000 670.0000 35.0000
v  -150.0000 690.0000 35.0000
v  -50.0000 690.0000 35.0000
v  50.0000 20.0000 35.0000
v  150.0000 20.0000 35.0000
v  150.0000 20.0000 -0.0000
v  50.0000 20.0000 -0.0000
v  50.0000 0.0000 35.0000
v  150.0000 0.0000 35.0000
v  -150.0000 20.0000 35.0000
v  -50.0000 20.0000 35.0000
v  -50.0000 20.0000 -0.0000
v  -150.0000 20.0000 -0.0000
v  -150.0000 0.0000 35.0000
v  -50.0000 0.0000 35.0000
v  0.0000 0.0000 49.9999
v  0.0000 690.0000 50.0000
# 42 vertices

vn -1.0000 0.0000 -0.0000
vn -1.0000 0.0000 -0.0000
vn -1.0000 0.0000 -0.0000
vn -1.0000 0.0000 -0.0000
vn 1.0000 0.0000 -0.0000
vn 1.0000 0.0000 -0.0000
vn 1.0000 0.0000 -0.0000
vn 1.0000 0.0000 -0.0000
vn 1.0000 0.0000 -0.0000
vn 1.0000 0.0000 -0.0000
vn 1.0000 0.0000 -0.0000
vn 1.0000 0.0000 -0.0000
vn 0.0000 0.0000 1.0000
vn 0.0000 0.0000 1.0000
vn 0.0000 0.0000 1.0000
vn 0.0000 0.0000 1.0000
vn -1.0000 0.0000 -0.0000
vn -1.0000 0.0000 -0.0000
vn -1.0000 0.0000 -0.0000
vn -1.0000 0.0000 -0.0000
vn 0.0000 0.0000 1.0000
vn 0.0000 0.0000 1.0000
vn 0.0000 0.0000 1.0000
vn 0.0000 0.0000 1.0000
vn 0.0000 -1.0000 -0.0000
vn 0.0000 -1.0000 -0.0000
vn 0.0000 -1.0000 -0.0000
vn 0.0000 -1.0000 -0.0000
vn 0.0000 0.0000 1.0000
vn 0.0000 0.0000 1.0000
vn 0.0000 0.0000 1.0000
vn 0.0000 0.0000 1.0000
vn 0.0000 -1.0000 -0.0000
vn 0.0000 -1.0000 -0.0000
vn 0.0000 -1.0000 -0.0000
vn 0.0000 -1.0000 -0.0000
vn 0.0000 0.0000 1.0000
vn 0.0000 0.0000 1.0000
vn 0.0000 0.0000 1.0000
vn 0.0000 0.0000 1.0000
vn 0.0000 1.0000 -0.0000
vn 0.0000 1.0000 -0.0000
vn 0.0000 1.0000 -0.0000
vn 0.0000 1.0000 -0.0000
vn 0.0000 0.0000 1.0000
vn 0.0000 0.0000 1.0000
vn 0.0000 0.0000 1.0000
vn 0.0000 0.0000 1.0000
vn 0.0000 1.0000 -0.0000
vn 0.0000 1.0000 -0.0000
vn 0.0000 1.0000 -0.0000
vn 0.0000 1.0000 -0.0000
vn 0.0000 0.0000 1.0000
vn 0.0000 0.0000 1.0000
vn 0.0000 0.0000 1.0000
vn 0.0000 0.0000 1.0000
vn 0.0000 -0.0000 1.0000
vn 0.0000 -0.0000 1.0000
vn 0.0000 -0.0000 1.0000
vn 0.0000 -0.0000 1.0000
# 60 vertex normals

vt 0.0100 0.7520 0.0000
vt 0.0100 0.6810 0.0000
vt 0.9900 0.6810 0.0000
vt 0.9900 0.7520 0.0000
vt 0.0100 0.5833 0.0000
vt 0.0100 0.5123 0.0000
vt 0.9900 0.5123 0.0000
vt 0.9900 0.5833 0.0000
vt 0.0100 0.4989 0.0000
vt 0.0100 0.4279 0.0000
vt 0.9900 0.4279 0.0000
vt 0.9900 0.4989 0.0000
vt 0.9900 0.3435 0.0000
vt 0.9900 0.4145 0.0000
vt 0.0100 0.4145 0.0000
vt 0.0100 0.3435 0.0000
vt 0.0100 0.3302 0.0000
vt 0.0100 0.2592 0.0000
vt 0.9900 0.2592 0.0000
vt 0.9900 0.3302 0.0000
vt 0.9900 0.8480 0.0000
vt 0.9900 0.9900 0.0000
vt 0.0100 0.9900 0.0000
vt 0.0100 0.8480 0.0000
vt 0.0849 0.1630 0.0000
vt 0.0849 0.1133 0.0000
vt 0.2269 0.1133 0.0000
vt 0.2269 0.1630 0.0000
vt 0.6995 0.1628 0.0000
vt 0.6995 0.1344 0.0000
vt 0.8415 0.1344 0.0000
vt 0.8415 0.1628 0.0000
vt 0.2386 0.1630 0.0000
vt 0.2386 0.1133 0.0000
vt 0.3806 0.1133 0.0000
vt 0.3806 0.1630 0.0000
vt 0.0552 0.1619 0.0000
vt 0.0268 0.1619 0.0000
vt 0.0268 0.0199 0.0000
vt 0.0552 0.0199 0.0000
vt 0.3922 0.1133 0.0000
vt 0.5342 0.1133 0.0000
vt 0.5342 0.1630 0.0000
vt 0.3922 0.1630 0.0000
vt 0.6995 0.0952 0.0000
vt 0.8415 0.0952 0.0000
vt 0.8415 0.1236 0.0000
vt 0.6995 0.1236 0.0000
vt 0.5459 0.1133 0.0000
vt 0.6879 0.1133 0.0000
vt 0.6879 0.1630 0.0000
vt 0.5459 0.1630 0.0000
vt 0.8523 0.1619 0.0000
vt 0.8523 0.0199 0.0000
vt 0.8807 0.0199 0.0000
vt 0.8807 0.1619 0.0000
vt 0.0100 0.9190 0.0000
vt 0.9900 0.9190 0.0000
# 58 texture coords

g Structure_T1_02_02
s 1
f 4/4/1 1/1/2 2/2/3 3/3/4 
f 8/8/5 5/5/6 6/6/7 7/7/8 
f 12/12/9 9/9/10 10/10/11 11/11/12 
f 14/16/13 13/13/14 7/14/15 6/15/16 
f 16/20/17 15/17/18 13/18/19 14/19/20 
f 2/23/21 41/57/22 42/58/23 3/22/24 
f 20/28/25 17/25/26 18/26/27 19/27/28 
f 22/32/29 21/29/30 17/30/31 20/31/32 
f 26/36/33 23/33/34 24/34/35 25/35/36 
f 28/40/37 27/37/38 23/38/39 26/39/40 
f 32/44/41 29/41/42 30/42/43 31/43/44 
f 29/48/45 33/45/46 34/46/47 30/47/48 
f 38/52/49 35/49/50 36/50/51 37/51/52 
f 35/56/53 39/53/54 40/54/55 36/55/56 
f 11/24/57 10/21/58 42/58/59 41/57/60 
# 15 polygons

