# 3ds Max Wavefront OBJ Exporter v0.97b - (c)2007 guruware
# File Created: 18.03.2017 22:20:22

#
# object StonePlate_01_Tile_02
#

v  -200.0000 0.0000 -0.0000
v  -86.1866 0.0000 -0.0000
v  86.0356 0.0000 -0.0000
v  200.0000 0.0000 -0.0000
v  -200.0000 97.8763 -0.0000
v  -86.1866 97.8763 -0.0000
v  86.0356 97.8763 -0.0000
v  200.0000 97.8763 -0.0000
v  -200.0000 201.1106 0.0000
v  -86.1866 201.1106 0.0000
v  86.0356 201.1106 0.0000
v  200.0000 201.1106 0.0000
v  -200.0000 400.0000 0.0000
v  -86.1866 400.0000 0.0000
v  86.0356 400.0000 0.0000
v  200.0000 400.0000 0.0000
# 16 vertices

vn 0.0000 -0.0000 1.0000
vn 0.0000 -0.0000 1.0000
vn 0.0000 -0.0000 1.0000
vn 0.0000 -0.0000 1.0000
vn 0.0000 -0.0000 1.0000
vn -0.0000 -0.0000 1.0000
vn -0.0000 -0.0000 1.0000
vn 0.0000 -0.0000 1.0000
vn -0.0000 -0.0000 1.0000
vn -0.0000 -0.0000 1.0000
vn -0.0000 -0.0000 1.0000
vn -0.0000 -0.0000 1.0000
vn 0.0000 -0.0000 1.0000
vn 0.0000 -0.0000 1.0000
vn 0.0000 -0.0000 1.0000
vn 0.0000 -0.0000 1.0000
vn -0.0000 -0.0000 1.0000
vn -0.0000 -0.0000 1.0000
vn -0.0000 -0.0000 1.0000
vn -0.0000 -0.0000 1.0000
vn 0.0000 -0.0000 1.0000
vn 0.0000 -0.0000 1.0000
vn 0.0000 -0.0000 1.0000
vn 0.0000 -0.0000 1.0000
vn 0.0000 -0.0000 1.0000
vn -0.0000 -0.0000 1.0000
vn -0.0000 -0.0000 1.0000
vn 0.0000 -0.0000 1.0000
vn -0.0000 -0.0000 1.0000
vn -0.0000 -0.0000 1.0000
vn -0.0000 -0.0000 1.0000
vn -0.0000 -0.0000 1.0000
# 32 vertex normals

vt 0.0000 0.0000 0.0000
vt 0.2845 0.0000 0.0000
vt 0.7151 0.0000 0.0000
vt 1.0000 0.0000 0.0000
vt 0.0000 0.2447 0.5409
vt 0.2845 0.2447 0.5409
vt 0.7151 0.2447 0.5409
vt 1.0000 0.2447 0.5409
vt 0.0000 0.5028 1.0000
vt 0.2845 0.5028 1.0000
vt 0.7151 0.5028 1.0000
vt 1.0000 0.5028 1.0000
vt 0.0000 1.0000 0.0000
vt 0.2845 1.0000 0.0000
vt 0.7151 1.0000 0.0000
vt 1.0000 1.0000 0.0000
# 16 texture coords

g StonePlate_01_Tile_02
s 1
f 1/1/1 2/2/2 6/6/3 5/5/4 
f 2/2/5 3/3/6 7/7/7 6/6/8 
f 3/3/9 4/4/10 8/8/11 7/7/12 
f 5/5/13 6/6/14 10/10/15 9/9/16 
f 7/7/17 8/8/18 12/12/19 11/11/20 
f 9/9/21 10/10/22 14/14/23 13/13/24 
f 10/10/25 11/11/26 15/15/27 14/14/28 
f 11/11/29 12/12/30 16/16/31 15/15/32 
# 8 polygons

