# 3ds Max Wavefront OBJ Exporter v0.97b - (c)2007 guruware
# File Created: 14.03.2017 23:28:25

#
# object StonePlate_01_03
#

v  186.6665 -4.2311 184.6754
v  184.6754 -6.2222 -0.0000
v  186.6665 4.2311 -0.0000
v  186.6665 4.2311 184.6754
v  184.6754 -6.2222 -184.6754
v  1.9911 -6.2222 -184.6754
v  0.0000 4.2311 -184.6754
v  186.6665 4.2311 -184.6754
v  1.9911 6.2222 184.6754
v  1.9911 6.2222 -0.0000
v  1.9911 -4.2311 186.6665
v  1.9911 -6.2222 -0.0000
v  184.6754 -4.2311 186.6665
v  184.6754 -6.2222 184.6754
v  186.6665 -4.2311 -0.0000
v  184.6754 6.2222 -0.0000
v  184.6754 6.2222 184.6754
v  184.6754 4.2311 186.6665
v  184.6754 -4.2311 -186.6665
v  186.6665 -4.2311 -184.6754
v  0.0000 -4.2311 -184.6754
v  1.9911 -4.2311 -186.6665
v  1.9911 6.2222 -184.6754
v  1.9911 4.2311 -186.6665
v  184.6754 4.2311 -186.6665
v  184.6754 6.2222 -184.6754
v  0.0000 4.2311 184.6754
v  1.9911 4.2311 186.6665
v  0.0000 4.2311 -0.0000
v  0.0000 -4.2311 184.6754
v  1.9911 -6.2222 184.6754
v  0.0000 -4.2311 -0.0000
# 32 vertices

vn 1.0000 0.0000 -0.0000
vn 1.0000 0.0000 -0.0000
vn 1.0000 0.0000 -0.0000
vn 1.0000 0.0000 -0.0000
vn 1.0000 0.0000 -0.0000
vn 1.0000 0.0000 -0.0000
vn 1.0000 0.0000 -0.0000
vn 1.0000 0.0000 -0.0000
vn 0.0000 0.0000 -1.0000
vn 0.0000 0.0000 -1.0000
vn 0.0000 0.0000 -1.0000
vn 0.0000 0.0000 -1.0000
vn 0.0000 1.0000 -0.0000
vn 0.0000 1.0000 -0.0000
vn 0.0000 1.0000 -0.0000
vn 0.0000 1.0000 -0.0000
vn 0.0000 1.0000 -0.0000
vn 0.0000 1.0000 -0.0000
vn 0.0000 1.0000 -0.0000
vn 0.0000 1.0000 -0.0000
vn 0.0000 0.0000 1.0000
vn 0.0000 0.0000 1.0000
vn 0.0000 0.0000 1.0000
vn 0.0000 0.0000 1.0000
vn 0.0000 -1.0000 -0.0000
vn 0.0000 -1.0000 -0.0000
vn 0.0000 -1.0000 -0.0000
vn 0.0000 -1.0000 -0.0000
vn 0.0000 -1.0000 -0.0000
vn 0.0000 -1.0000 -0.0000
vn 0.0000 -1.0000 -0.0000
vn 0.0000 -1.0000 -0.0000
vn -1.0000 0.0000 -0.0000
vn -1.0000 0.0000 -0.0000
vn -1.0000 0.0000 -0.0000
vn -1.0000 0.0000 -0.0000
vn -1.0000 0.0000 -0.0000
vn -1.0000 0.0000 -0.0000
vn -1.0000 0.0000 -0.0000
vn -1.0000 0.0000 -0.0000
vn 0.5773 -0.5774 0.5773
vn 0.5773 -0.5774 0.5773
vn 0.5773 -0.5774 0.5773
vn 0.5773 0.5774 0.5773
vn 0.5773 0.5774 0.5773
vn 0.5773 0.5774 0.5773
vn 0.5773 -0.5774 -0.5773
vn 0.5773 -0.5774 -0.5773
vn 0.5773 -0.5774 -0.5773
vn -0.5773 -0.5774 -0.5773
vn -0.5773 -0.5774 -0.5773
vn -0.5773 -0.5774 -0.5773
vn -0.5773 0.5774 -0.5773
vn -0.5773 0.5774 -0.5773
vn -0.5773 0.5774 -0.5773
vn 0.5773 0.5774 -0.5773
vn 0.5773 0.5774 -0.5773
vn 0.5773 0.5774 -0.5773
vn -0.5773 0.5774 0.5773
vn -0.5773 0.5774 0.5773
vn -0.5773 0.5774 0.5773
vn -0.5773 -0.5774 0.5773
vn -0.5773 -0.5774 0.5773
vn -0.5773 -0.5774 0.5773
vn 0.7071 -0.7071 -0.0000
vn 0.7071 -0.7071 -0.0000
vn 0.7071 -0.7071 -0.0000
vn 0.7071 -0.7071 -0.0000
vn 0.7071 -0.7071 -0.0000
vn 0.7071 -0.7071 -0.0000
vn 0.7071 -0.7071 -0.0000
vn 0.7071 -0.7071 -0.0000
vn 0.7071 0.7071 -0.0000
vn 0.7071 0.7071 -0.0000
vn 0.7071 0.7071 -0.0000
vn 0.7071 0.7071 -0.0000
vn 0.7071 0.7071 -0.0000
vn 0.7071 0.7071 -0.0000
vn 0.7071 0.7071 -0.0000
vn 0.7071 0.7071 -0.0000
vn 0.7071 0.0000 0.7071
vn 0.7071 0.0000 0.7071
vn 0.7071 0.0000 0.7071
vn 0.7071 0.0000 0.7071
vn 0.0000 -0.7071 -0.7071
vn 0.0000 -0.7071 -0.7071
vn 0.0000 -0.7071 -0.7071
vn 0.0000 -0.7071 -0.7071
vn -0.7071 0.0000 -0.7071
vn -0.7071 0.0000 -0.7071
vn -0.7071 0.0000 -0.7071
vn -0.7071 0.0000 -0.7071
vn 0.0000 0.7071 -0.7071
vn 0.0000 0.7071 -0.7071
vn 0.0000 0.7071 -0.7071
vn 0.0000 0.7071 -0.7071
vn 0.7071 0.0000 -0.7071
vn 0.7071 0.0000 -0.7071
vn 0.7071 0.0000 -0.7071
vn 0.7071 0.0000 -0.7071
vn 0.0000 0.7071 0.7071
vn 0.0000 0.7071 0.7071
vn 0.0000 0.7071 0.7071
vn 0.0000 0.7071 0.7071
vn -0.7071 0.7071 -0.0000
vn -0.7071 0.7071 -0.0000
vn -0.7071 0.7071 -0.0000
vn -0.7071 0.7071 -0.0000
vn -0.7071 0.7071 -0.0000
vn -0.7071 0.7071 -0.0000
vn -0.7071 0.7071 -0.0000
vn -0.7071 0.7071 -0.0000
vn 0.0000 -0.7071 0.7071
vn 0.0000 -0.7071 0.7071
vn 0.0000 -0.7071 0.7071
vn 0.0000 -0.7071 0.7071
vn -0.7071 0.0000 0.7071
vn -0.7071 0.0000 0.7071
vn -0.7071 0.0000 0.7071
vn -0.7071 0.0000 0.7071
vn -0.7071 -0.7071 -0.0000
vn -0.7071 -0.7071 -0.0000
vn -0.7071 -0.7071 -0.0000
vn -0.7071 -0.7071 -0.0000
vn -0.7071 -0.7071 -0.0000
vn -0.7071 -0.7071 -0.0000
vn -0.7071 -0.7071 -0.0000
vn -0.7071 -0.7071 -0.0000
# 128 vertex normals

vt 0.5064 0.4820 0.0000
vt 0.5064 0.4925 0.0000
vt 0.2767 0.4925 0.0000
vt 0.2767 0.4820 0.0000
vt 0.7591 0.9760 0.0000
vt 0.7486 0.9760 0.0000
vt 0.7486 0.7487 0.0000
vt 0.7591 0.7487 0.0000
vt 0.2767 0.4960 0.0000
vt 0.5064 0.4960 0.0000
vt 0.5064 0.7233 0.0000
vt 0.2767 0.7233 0.0000
vt 0.2627 0.4960 0.0000
vt 0.2732 0.4960 0.0000
vt 0.2732 0.7233 0.0000
vt 0.2627 0.7233 0.0000
vt 0.9865 0.7361 0.0000
vt 0.7568 0.7361 0.0000
vt 0.7568 0.5088 0.0000
vt 0.9865 0.5088 0.0000
vt 0.7451 0.7347 0.0000
vt 0.7451 0.7452 0.0000
vt 0.5154 0.7452 0.0000
vt 0.5154 0.7347 0.0000
vt 0.7451 0.7487 0.0000
vt 0.7451 0.9760 0.0000
vt 0.5154 0.9760 0.0000
vt 0.5154 0.7487 0.0000
vt 0.9865 0.2652 0.0000
vt 0.9865 0.4924 0.0000
vt 0.7568 0.4924 0.0000
vt 0.7568 0.2652 0.0000
vt 0.5154 0.9900 0.0000
vt 0.5154 0.9795 0.0000
vt 0.7451 0.9795 0.0000
vt 0.7451 0.9900 0.0000
vt 0.2767 0.7373 0.0000
vt 0.2767 0.7268 0.0000
vt 0.5064 0.7268 0.0000
vt 0.5064 0.7373 0.0000
vt 0.9882 0.2621 0.0000
vt 0.9900 0.2652 0.0000
vt 0.2750 0.4930 0.0000
vt 0.9895 0.7378 0.0000
vt 0.9865 0.7396 0.0000
vt 0.9882 0.5058 0.0000
vt 0.9900 0.5088 0.0000
vt 0.7469 0.9790 0.0000
vt 0.7481 0.7470 0.0000
vt 0.2737 0.7250 0.0000
vt 0.9895 0.4942 0.0000
vt 0.9865 0.4959 0.0000
vt 0.9865 0.2617 0.0000
vt 0.7568 0.2617 0.0000
vt 0.2627 0.4925 0.0000
vt 0.2732 0.4925 0.0000
vt 0.9900 0.7361 0.0000
vt 0.7591 0.9795 0.0000
vt 0.7486 0.9795 0.0000
vt 0.7486 0.7347 0.0000
vt 0.7486 0.7452 0.0000
vt 0.9900 0.4924 0.0000
vt 0.2732 0.7268 0.0000
vt 0.2732 0.7373 0.0000
vt 0.7568 0.7396 0.0000
vt 0.7568 0.5053 0.0000
vt 0.9865 0.5053 0.0000
vt 0.7568 0.4959 0.0000
# 68 texture coords

g StonePlate_01_03
s 1
f 1/4/1 15/1/2 3/2/3 4/3/4 
f 15/24/5 20/21/6 8/22/7 3/23/8 
f 19/8/9 22/5/10 24/6/11 25/7/12 
f 9/12/13 17/9/14 16/10/15 10/11/16 
f 16/28/17 26/25/18 23/26/19 10/27/20 
f 11/16/21 13/13/22 18/14/23 28/15/24 
f 6/20/25 5/17/26 2/18/27 12/19/28 
f 2/32/29 14/29/30 31/30/31 12/31/32 
f 21/36/33 32/33/34 29/34/35 7/35/36 
f 32/40/37 30/37/38 27/38/39 29/39/40 
s 2
f 1/41/41 13/42/42 14/29/43 
f 4/43/44 17/9/45 18/14/46 
f 5/17/47 19/44/48 20/45/49 
f 6/20/50 21/46/51 22/47/52 
f 7/48/53 23/26/54 24/6/55 
f 8/22/56 25/49/57 26/25/58 
f 9/12/59 27/38/60 28/50/61 
f 11/51/62 30/52/63 31/30/64 
s 4
f 15/54/65 1/53/66 14/29/67 2/32/68 
f 20/45/69 15/65/70 2/18/71 5/17/72 
f 16/10/73 17/9/74 4/3/75 3/2/76 
f 26/25/77 16/28/78 3/23/79 8/22/80 
s 8
f 18/14/81 13/13/82 1/55/83 4/56/84 
f 22/47/85 19/57/86 5/17/87 6/20/88 
s 4
f 24/6/89 22/5/90 21/58/91 7/59/92 
s 8
f 23/26/93 26/25/94 25/7/95 24/6/96 
s 16
f 8/22/97 20/21/98 19/60/99 25/61/100 
f 17/9/101 9/12/102 28/15/103 18/14/104 
s 32
f 9/12/105 10/11/106 29/39/107 27/38/108 
f 10/27/109 23/26/110 7/35/111 29/34/112 
s 16
f 13/42/113 11/62/114 31/30/115 14/29/116 
s 4
f 11/64/117 28/63/118 27/38/119 30/37/120 
s 32
f 6/20/121 12/19/122 32/66/123 21/67/124 
f 12/31/125 31/30/126 30/52/127 32/68/128 
# 26 polygons - 8 triangles

