# 3ds Max Wavefront OBJ Exporter v0.97b - (c)2007 guruware
# File Created: 18.12.2015 16:49:45

#
# object Structure_T1_01_Corner01
#

v  -0.0000 0.0000 -200.0000
v  -50.0000 0.0000 -200.0000
v  -50.0000 -30.0000 -200.0000
v  -0.0000 -110.0000 -200.0000
v  -50.0000 -110.0000 -200.0000
v  -50.0000 -60.0000 -200.0000
v  -35.0000 -30.0000 -200.0000
v  -35.0000 -60.0000 -200.0000
v  -45.0000 -60.0000 -150.0000
v  -45.0000 -30.0000 -150.0000
v  -45.0000 -60.0000 -50.0000
v  -45.0000 -30.0000 -50.0000
v  -35.0000 -60.0000 -50.0000
v  -35.0000 -30.0000 -50.0000
v  -35.0000 -30.0000 -150.0000
v  -35.0000 -60.0000 -150.0000
v  -35.0000 -30.0000 35.0000
v  200.0000 0.0000 50.0000
v  -50.0000 0.0000 50.0000
v  -0.0000 0.0000 0.0000
v  200.0000 0.0000 0.0000
v  200.0000 -30.0000 50.0000
v  200.0000 -30.0000 35.0000
v  -50.0000 -30.0000 50.0000
v  50.0000 -60.0000 45.0000
v  50.0000 -30.0000 45.0000
v  150.0000 -30.0000 45.0000
v  150.0000 -60.0000 45.0000
v  50.0000 -30.0000 35.0000
v  50.0000 -60.0000 35.0000
v  150.0000 -60.0000 35.0000
v  150.0000 -30.0000 35.0000
v  -50.0000 -110.0000 50.0000
v  200.0000 -110.0000 50.0000
v  200.0000 -110.0000 0.0000
v  -0.0000 -110.0000 0.0000
v  -50.0000 -60.0000 50.0000
v  200.0000 -60.0000 50.0000
v  -35.0000 -60.0000 35.0000
v  200.0000 -60.0000 35.0000
# 40 vertices

vn 0.0000 1.0000 -0.0000
vn 0.0000 1.0000 -0.0000
vn 0.0000 1.0000 -0.0000
vn 0.0000 1.0000 -0.0000
vn 0.0000 -1.0000 -0.0000
vn 0.0000 -1.0000 -0.0000
vn 0.0000 -1.0000 -0.0000
vn 0.0000 -1.0000 -0.0000
vn -1.0000 0.0000 0.0000
vn -1.0000 0.0000 0.0000
vn -1.0000 0.0000 0.0000
vn -1.0000 0.0000 0.0000
vn 0.0000 0.0000 1.0000
vn 0.0000 0.0000 1.0000
vn 0.0000 0.0000 1.0000
vn 0.0000 0.0000 1.0000
vn 0.0000 0.0000 -1.0000
vn 0.0000 0.0000 -1.0000
vn 0.0000 0.0000 -1.0000
vn 0.0000 0.0000 -1.0000
vn -1.0000 0.0000 0.0000
vn -1.0000 0.0000 0.0000
vn -1.0000 0.0000 0.0000
vn -1.0000 0.0000 0.0000
vn 0.0000 -1.0000 -0.0000
vn 0.0000 -1.0000 -0.0000
vn 0.0000 -1.0000 -0.0000
vn 0.0000 -1.0000 -0.0000
vn -1.0000 0.0000 0.0000
vn -1.0000 0.0000 0.0000
vn -1.0000 0.0000 0.0000
vn -1.0000 0.0000 0.0000
vn 0.0000 1.0000 -0.0000
vn 0.0000 1.0000 -0.0000
vn 0.0000 1.0000 -0.0000
vn 0.0000 1.0000 -0.0000
vn -1.0000 0.0000 0.0000
vn -1.0000 0.0000 0.0000
vn -1.0000 0.0000 0.0000
vn -1.0000 0.0000 0.0000
vn 0.0000 1.0000 -0.0000
vn 0.0000 1.0000 -0.0000
vn 0.0000 1.0000 -0.0000
vn 0.0000 1.0000 -0.0000
vn 0.0000 -1.0000 -0.0000
vn 0.0000 -1.0000 -0.0000
vn 0.0000 -1.0000 -0.0000
vn 0.0000 -1.0000 -0.0000
vn -0.0000 0.0000 1.0000
vn -0.0000 0.0000 1.0000
vn -0.0000 0.0000 1.0000
vn -0.0000 0.0000 1.0000
vn -1.0000 0.0000 -0.0000
vn -1.0000 0.0000 -0.0000
vn -1.0000 0.0000 -0.0000
vn -1.0000 0.0000 -0.0000
vn 1.0000 0.0000 -0.0000
vn 1.0000 0.0000 -0.0000
vn 1.0000 0.0000 -0.0000
vn 1.0000 0.0000 -0.0000
vn -0.0000 0.0000 1.0000
vn -0.0000 0.0000 1.0000
vn -0.0000 0.0000 1.0000
vn -0.0000 0.0000 1.0000
vn 0.0000 -1.0000 -0.0000
vn 0.0000 -1.0000 -0.0000
vn 0.0000 -1.0000 -0.0000
vn 0.0000 -1.0000 -0.0000
vn -0.0000 0.0000 1.0000
vn -0.0000 0.0000 1.0000
vn -0.0000 0.0000 1.0000
vn -0.0000 0.0000 1.0000
vn 0.0000 1.0000 -0.0000
vn 0.0000 1.0000 -0.0000
vn 0.0000 1.0000 -0.0000
vn 0.0000 1.0000 -0.0000
vn -0.0000 0.0000 1.0000
vn -0.0000 0.0000 1.0000
vn -0.0000 0.0000 1.0000
vn -0.0000 0.0000 1.0000
# 80 vertex normals

vt 0.0100 0.9900 0.0000
vt 0.0100 0.8675 0.0000
vt 0.0100 0.5097 0.0000
vt 0.0100 0.5832 0.0000
vt 0.0100 0.7319 0.0000
vt 0.0100 0.8544 0.0000
vt 0.9900 0.7188 0.0000
vt 0.9900 0.5963 0.0000
vt 0.0100 0.3616 0.0000
vt 0.0100 0.3249 0.0000
vt 0.9900 0.4112 0.0000
vt 0.9900 0.3745 0.0000
vt 0.0100 0.4972 0.0000
vt 0.0100 0.4237 0.0000
vt 0.3804 0.3127 0.0000
vt 0.3804 0.2392 0.0000
vt 0.1354 0.3127 0.0000
vt 0.1354 0.2392 0.0000
vt 0.1224 0.3134 0.0000
vt 0.0489 0.3134 0.0000
vt 0.0489 0.2889 0.0000
vt 0.1224 0.2889 0.0000
vt 0.6509 0.2889 0.0000
vt 0.7244 0.2889 0.0000
vt 0.7244 0.3134 0.0000
vt 0.6509 0.3134 0.0000
vt 0.6225 0.8675 0.0000
vt 0.6225 0.5832 0.0000
vt 0.5000 0.9900 0.0000
vt 0.6225 0.5097 0.0000
vt 0.6225 0.3616 0.0000
vt 0.6225 0.8544 0.0000
vt 0.3775 0.7188 0.0000
vt 0.5000 0.7319 0.0000
vt 0.3775 0.5963 0.0000
vt 0.3775 0.4112 0.0000
vt 0.5857 0.3249 0.0000
vt 0.5857 0.4972 0.0000
vt 0.4142 0.3745 0.0000
vt 0.5858 0.4237 0.0000
vt 0.0100 0.8675 0.0000
vt 0.6225 0.8675 0.0000
vt 0.5000 0.9900 0.0000
vt 0.0100 0.9900 0.0000
vt 0.0100 0.3616 0.0000
vt 0.0100 0.3249 0.0000
vt 0.5857 0.3249 0.0000
vt 0.6225 0.3616 0.0000
vt 0.1354 0.3127 0.0000
vt 0.1354 0.2392 0.0000
vt 0.3804 0.2392 0.0000
vt 0.3804 0.3127 0.0000
vt 0.0489 0.3134 0.0000
vt 0.0489 0.2889 0.0000
vt 0.1224 0.2889 0.0000
vt 0.1224 0.3134 0.0000
vt 0.7244 0.2889 0.0000
vt 0.7244 0.3134 0.0000
vt 0.6509 0.3134 0.0000
vt 0.6509 0.2889 0.0000
vt 0.6225 0.5832 0.0000
vt 0.0100 0.5832 0.0000
vt 0.0100 0.5097 0.0000
vt 0.6225 0.5097 0.0000
vt 0.6225 0.8544 0.0000
vt 0.0100 0.8544 0.0000
vt 0.0100 0.7319 0.0000
vt 0.5000 0.7319 0.0000
vt 0.3775 0.5963 0.0000
vt 0.9900 0.5963 0.0000
vt 0.9900 0.7188 0.0000
vt 0.3775 0.7188 0.0000
vt 0.4142 0.3745 0.0000
vt 0.9900 0.3745 0.0000
vt 0.9900 0.4112 0.0000
vt 0.3775 0.4112 0.0000
vt 0.5857 0.4972 0.0000
vt 0.0100 0.4972 0.0000
vt 0.0100 0.4237 0.0000
vt 0.5858 0.4237 0.0000
# 80 texture coords

g Structure_T1_01_Corner01
s off
f 2/2/1 19/27/2 20/29/3 1/1/4 
f 3/9/5 7/10/6 17/37/7 24/31/8 
f 11/17/9 12/18/10 10/16/11 9/15/12 
f 11/22/13 13/19/14 14/20/15 12/21/16 
f 10/26/17 15/23/18 16/24/19 9/25/20 
f 2/4/21 3/3/22 24/30/23 19/28/24 
f 5/6/25 4/5/26 36/34/27 33/32/28 
f 6/8/29 5/7/30 33/33/31 37/35/32 
f 39/39/33 8/12/34 6/11/35 37/36/36 
f 7/13/37 8/14/38 39/40/39 17/38/40 
f 18/41/41 21/44/42 20/43/43 19/42/44 
f 22/45/45 24/48/46 17/47/47 23/46/48 
f 25/49/49 28/52/50 27/51/51 26/50/52 
f 25/55/53 26/54/54 29/53/55 30/56/56 
f 27/59/57 28/58/58 31/57/59 32/60/60 
f 18/62/61 19/61/62 24/64/63 22/63/64 
f 34/66/65 33/65/66 36/68/67 35/67/68 
f 38/70/69 37/69/70 33/72/71 34/71/72 
f 39/73/73 37/76/74 38/75/75 40/74/76 
f 23/78/77 17/77/78 39/80/79 40/79/80 
# 20 polygons

