# 3ds Max Wavefront OBJ Exporter v0.97b - (c)2007 guruware
# File Created: 18.12.2015 16:49:14

#
# object Structure_T1_01
#

v  -0.0000 0.0000 -200.0000
v  -50.0000 0.0000 -200.0000
v  -50.0000 0.0000 200.0000
v  0.0000 0.0000 200.0000
v  -50.0000 -30.0000 -200.0000
v  -50.0000 -30.0000 200.0000
v  -0.0000 -110.0000 -200.0000
v  0.0000 -110.0000 200.0000
v  -50.0000 -110.0000 200.0000
v  -50.0000 -110.0000 -200.0000
v  -50.0000 -60.0000 200.0000
v  -50.0000 -60.0000 -200.0000
v  -35.0000 -30.0000 -200.0000
v  -35.0000 -30.0000 200.0000
v  -35.0000 -60.0000 200.0000
v  -35.0000 -60.0000 -200.0000
v  -45.0000 -60.0000 -150.0000
v  -45.0000 -30.0000 -150.0000
v  -45.0000 -60.0000 -50.0000
v  -45.0000 -30.0000 -50.0000
v  -45.0000 -60.0000 50.0000
v  -45.0000 -30.0000 50.0000
v  -45.0000 -60.0000 150.0000
v  -45.0000 -30.0000 150.0000
v  -35.0000 -60.0000 -50.0000
v  -35.0000 -30.0000 -50.0000
v  -35.0000 -30.0000 -150.0000
v  -35.0000 -60.0000 -150.0000
v  -35.0000 -60.0000 150.0000
v  -35.0000 -30.0000 150.0000
v  -35.0000 -30.0000 50.0000
v  -35.0000 -60.0000 50.0000
# 32 vertices

vn 0.0000 1.0000 -0.0000
vn 0.0000 1.0000 -0.0000
vn 0.0000 1.0000 -0.0000
vn 0.0000 1.0000 -0.0000
vn -1.0000 0.0000 -0.0000
vn -1.0000 0.0000 -0.0000
vn -1.0000 0.0000 -0.0000
vn -1.0000 0.0000 -0.0000
vn 0.0000 -1.0000 -0.0000
vn 0.0000 -1.0000 -0.0000
vn 0.0000 -1.0000 -0.0000
vn 0.0000 -1.0000 -0.0000
vn -1.0000 0.0000 -0.0000
vn -1.0000 0.0000 -0.0000
vn -1.0000 0.0000 -0.0000
vn -1.0000 0.0000 -0.0000
vn 0.0000 -1.0000 -0.0000
vn 0.0000 -1.0000 -0.0000
vn 0.0000 -1.0000 -0.0000
vn 0.0000 -1.0000 -0.0000
vn 0.0000 1.0000 -0.0000
vn 0.0000 1.0000 -0.0000
vn 0.0000 1.0000 -0.0000
vn 0.0000 1.0000 -0.0000
vn -1.0000 0.0000 -0.0000
vn -1.0000 0.0000 -0.0000
vn -1.0000 0.0000 -0.0000
vn -1.0000 0.0000 -0.0000
vn -1.0000 0.0000 -0.0000
vn -1.0000 0.0000 -0.0000
vn -1.0000 0.0000 -0.0000
vn -1.0000 0.0000 -0.0000
vn -1.0000 0.0000 -0.0000
vn -1.0000 0.0000 -0.0000
vn -1.0000 0.0000 -0.0000
vn -1.0000 0.0000 -0.0000
vn 0.0000 0.0000 1.0000
vn 0.0000 0.0000 1.0000
vn 0.0000 0.0000 1.0000
vn 0.0000 0.0000 1.0000
vn 0.0000 0.0000 -1.0000
vn 0.0000 0.0000 -1.0000
vn 0.0000 0.0000 -1.0000
vn 0.0000 0.0000 -1.0000
vn 0.0000 0.0000 1.0000
vn 0.0000 0.0000 1.0000
vn 0.0000 0.0000 1.0000
vn 0.0000 0.0000 1.0000
vn 0.0000 0.0000 -1.0000
vn 0.0000 0.0000 -1.0000
vn 0.0000 0.0000 -1.0000
vn 0.0000 0.0000 -1.0000
# 52 vertex normals

vt 0.0100 0.9900 0.0000
vt 0.0100 0.8675 0.0000
vt 0.9900 0.8675 0.0000
vt 0.9900 0.9900 0.0000
vt 0.0100 0.5097 0.0000
vt 0.9900 0.5097 0.0000
vt 0.9900 0.5832 0.0000
vt 0.0100 0.5832 0.0000
vt 0.0100 0.7319 0.0000
vt 0.9900 0.7319 0.0000
vt 0.9900 0.8544 0.0000
vt 0.0100 0.8544 0.0000
vt 0.9900 0.7188 0.0000
vt 0.0100 0.7188 0.0000
vt 0.0100 0.5963 0.0000
vt 0.9900 0.5963 0.0000
vt 0.9900 0.3616 0.0000
vt 0.0100 0.3616 0.0000
vt 0.0100 0.3249 0.0000
vt 0.9900 0.3249 0.0000
vt 0.9900 0.4112 0.0000
vt 0.0100 0.4112 0.0000
vt 0.0100 0.3745 0.0000
vt 0.9900 0.3745 0.0000
vt 0.9900 0.4237 0.0000
vt 0.9900 0.4972 0.0000
vt 0.0100 0.4972 0.0000
vt 0.0100 0.4237 0.0000
vt 0.3804 0.3127 0.0000
vt 0.3804 0.2392 0.0000
vt 0.1354 0.3127 0.0000
vt 0.1354 0.2392 0.0000
vt 0.6384 0.3127 0.0000
vt 0.6384 0.2392 0.0000
vt 0.3934 0.3127 0.0000
vt 0.3934 0.2392 0.0000
vt 0.1224 0.3134 0.0000
vt 0.0489 0.3134 0.0000
vt 0.0489 0.2889 0.0000
vt 0.1224 0.2889 0.0000
vt 0.6509 0.2889 0.0000
vt 0.7244 0.2889 0.0000
vt 0.7244 0.3134 0.0000
vt 0.6509 0.3134 0.0000
vt 0.0345 0.2392 0.0000
vt 0.0345 0.3127 0.0000
vt 0.0100 0.3127 0.0000
vt 0.0100 0.2392 0.0000
vt 0.0489 0.2525 0.0000
vt 0.1224 0.2525 0.0000
vt 0.1224 0.2770 0.0000
vt 0.0489 0.2770 0.0000
# 52 texture coords

g Structure_T1_01
s 1
f 4/4/1 1/1/2 2/2/3 3/3/4 
s 2
f 2/8/5 5/5/6 6/6/7 3/7/8 
s 1
f 10/12/9 7/9/10 8/10/11 9/11/12 
s 2
f 12/16/13 10/13/14 9/14/15 11/15/16 
s 1
f 14/20/17 6/17/18 5/18/19 13/19/20 
f 16/24/21 12/21/22 11/22/23 15/23/24 
s 2
f 16/28/25 15/25/26 14/26/27 13/27/28 
s 1
f 19/31/29 20/32/30 18/30/31 17/29/32 
f 23/35/33 24/36/34 22/34/35 21/33/36 
s 2
f 19/40/37 25/37/38 26/38/39 20/39/40 
f 18/44/41 27/41/42 28/42/43 17/43/44 
f 23/48/45 29/45/46 30/46/47 24/47/48 
f 22/52/49 31/49/50 32/50/51 21/51/52 
# 13 polygons

